<svg xmlns="http://www.w3.org/2000/svg" viewBox="0 0 962.26 893.38"><defs><style>.cls-1{fill:#faf5f6;}.cls-2{fill:#7a657f;}.cls-3{fill:#f4f2f2;}.cls-4{fill:#fff;}.cls-5{fill:#f9f7ea;}.cls-6{fill:#fcf9f9;}.cls-7{fill:#c7c4d2;}</style></defs><title>アセット 1</title><g id="レイヤー_2" data-name="レイヤー 2"><g id="Layer_1" data-name="Layer 1"><path class="cls-1" d="M183.05,396.54a625.27,625.27,0,0,0-135.9,85.77C-19.12,537.44-13,606.34,49.71,660,153.58,748.85,292.6,787.23,429,796c90,5.81,182.93-.7,265.07-37.89s152.16-109,169.87-197.43S836.54,370.46,752.23,338.5c-31.78-12-66.34-14-100.28-15.85C493.89,314.07,327.73,329,183.05,396.54Z"/><path class="cls-2" d="M78.43,60.28a2.6,2.6,0,0,1-2.6-2.52c-.53-16.91-.58-34.06-.15-51a2.6,2.6,0,0,1,5.2.13c-.44,16.82-.38,33.86.15,50.68a2.61,2.61,0,0,1-2.52,2.68Z"/><path class="cls-2" d="M110.7,60.08a2.61,2.61,0,0,1-1.8-.72A119.28,119.28,0,0,0,80.49,39.22a4.53,4.53,0,0,1-1.72-1.36c-1.17-1.61-1.08-4.18,1.76-6.29A120.3,120.3,0,0,0,104.86,7.36,2.6,2.6,0,1,1,109,10.48,125.37,125.37,0,0,1,84.22,35.3a124.44,124.44,0,0,1,28.27,20.3,2.6,2.6,0,0,1-1.79,4.48Z"/><path class="cls-2" d="M161.14,59h-.24a2.61,2.61,0,0,1-2.36-2.82l0-.44c.8-8.88,2.12-23.74-5.93-28.81-7.26-4.57-17.11,7.53-18.2,8.93a2.6,2.6,0,0,1-4.09-3.22C137,24.28,147,17.23,155.42,22.53c10.74,6.76,9.24,23.6,8.34,33.67l0,.44A2.6,2.6,0,0,1,161.14,59Z"/><path class="cls-2" d="M132.79,59.78a2.6,2.6,0,0,1-2.58-2.29c-.92-7.46-.55-16.94-.23-25.3.14-3.7.28-7.19.3-10.34a2.6,2.6,0,0,1,2.6-2.58h0a2.61,2.61,0,0,1,2.58,2.62c0,3.23-.17,6.76-.31,10.5-.31,8.16-.67,17.42.2,24.47a2.6,2.6,0,0,1-2.26,2.89Z"/><path class="cls-2" d="M194.7,58.76A19.6,19.6,0,0,1,185,56.14a20.24,20.24,0,0,1-9.39-20.83,17.85,17.85,0,0,1,14.23-15,12.17,12.17,0,0,1,5.28.18h0c7.11,1.73,12.84,8.08,14.61,16.19,1.67,7.64-.61,14.79-6.11,19.13A14.28,14.28,0,0,1,194.7,58.76ZM192,25.31a5.94,5.94,0,0,0-1.13.1,12.6,12.6,0,0,0-10.12,10.76c-.87,5.19.92,12,6.88,15.49,3.57,2.08,9.09,3,12.78.08,3.9-3.07,5.49-8.29,4.25-13.94-1.35-6.18-5.57-11-10.76-12.25h0A8.17,8.17,0,0,0,192,25.31Z"/><path class="cls-2" d="M236.3,59.83c-1.33,0-3.11-.64-4.37-3.51a128.93,128.93,0,0,1-8.75-28.48,2.6,2.6,0,0,1,5.11-.94,123.82,123.82,0,0,0,8.33,27.18c3.52-3.26,5.11-8.38,6.1-12.54.25-1.08.49-2.17.73-3.27,1-4.43,2-9,4.28-13.2a2.64,2.64,0,0,1,2.39-1.34,2.6,2.6,0,0,1,2.26,1.55L260.58,44c1.48,3.38,3,6.87,5.41,9.49,4.45-8.36,6-18,7.45-27.43a2.6,2.6,0,1,1,5.13.81c-1.5,9.58-3.21,20.44-8.37,29.74a4.93,4.93,0,0,1-2.43,2.38c-1,.4-3,.71-5.25-1.61-3.2-3.32-5.06-7.55-6.7-11.29L250.09,33c-.61,2.05-1.08,4.19-1.56,6.4-.25,1.12-.49,2.25-.76,3.36-1.23,5.17-3.3,11.63-8.41,15.83a4.75,4.75,0,0,1-2.9,1.25Zm-.46-5.1Z"/><path class="cls-2" d="M713.68,64.37c-1.33,0-3.12-.63-4.38-3.5a129.63,129.63,0,0,1-8.75-28.48,2.6,2.6,0,0,1,5.11-.94A124.27,124.27,0,0,0,714,58.62c3.53-3.26,5.11-8.37,6.1-12.53.26-1.09.5-2.18.73-3.27,1-4.43,2-9,4.28-13.2a2.6,2.6,0,0,1,4.66.21L738,48.5c1.49,3.38,3,6.87,5.41,9.49,4.46-8.36,6-18.05,7.46-27.43a2.6,2.6,0,0,1,5.13.81c-1.51,9.58-3.22,20.44-8.38,29.74a4.89,4.89,0,0,1-2.43,2.38c-1,.39-3,.71-5.25-1.61-3.19-3.31-5-7.55-6.7-11.29l-5.73-13.06c-.61,2-1.08,4.19-1.56,6.4-.24,1.12-.49,2.25-.75,3.36-1.23,5.16-3.3,11.63-8.41,15.83a4.81,4.81,0,0,1-2.9,1.25Z"/><path class="cls-2" d="M295.46,58.38h0a2.59,2.59,0,0,1-2.57-2.62l.46-48.66a2.59,2.59,0,0,1,2.6-2.57h0a2.6,2.6,0,0,1,2.58,2.62l-.47,48.66A2.59,2.59,0,0,1,295.46,58.38Z"/><path class="cls-2" d="M332.55,59.05a20.12,20.12,0,0,1-16.36-8.29c-5.4-7.71-4.44-19.12,2.19-26a13.13,13.13,0,0,1,4.31-3.1c4.21-1.79,8.62-.5,12.77,1,2.35.83,7.85,2.79,8.68,7.84a8.46,8.46,0,0,1-3.34,7.79,16.71,16.71,0,0,1-6.59,2.89,54.27,54.27,0,0,1-15.95,1.51,13.84,13.84,0,0,0,2.19,5.09c4,5.73,12.51,7.79,18.55,4.49a2.6,2.6,0,0,1,2.49,4.56A18.61,18.61,0,0,1,332.55,59.05ZM318,37.46A48.85,48.85,0,0,0,333,36.13a12,12,0,0,0,4.6-1.91,3.4,3.4,0,0,0,1.45-2.9c-.3-1.8-3.16-3-5.29-3.78-3.32-1.18-6.51-2.15-9-1.09a8.1,8.1,0,0,0-2.6,1.93A15.52,15.52,0,0,0,318,37.46Z"/><path class="cls-2" d="M380.5,64.46a25.08,25.08,0,0,1-17.33-7A16.92,16.92,0,0,1,358.44,50c-1.66-6,1.21-13,7-17.07,4.24-3,9.65-4.57,17-4.91a2.6,2.6,0,0,1,.24,5.19c-6.32.3-10.85,1.55-14.25,4s-6.18,7.1-5,11.44a11.81,11.81,0,0,0,3.33,5.15,19.78,19.78,0,0,0,15.84,5.4c1.57-.17,2.06-.54,2.21-.74a5.11,5.11,0,0,0,.33-2.36l0-53.44A2.6,2.6,0,0,1,387.8,0h0a2.6,2.6,0,0,1,2.6,2.6l0,53.45A8.68,8.68,0,0,1,389,61.53c-1.76,2.33-4.78,2.67-5.78,2.78A24.43,24.43,0,0,1,380.5,64.46Z"/><path class="cls-2" d="M423.89,74.65a14,14,0,0,1-3.59-.46c-3.4-.9-11.34-3-11.65-11.66a2.6,2.6,0,0,1,5.2-.18c.14,4,2.84,5.5,7.78,6.81a9.89,9.89,0,0,0,9.62-2.91c3.16-3.48,3.53-7.58,4-12.77l.08-.85a71.75,71.75,0,0,0-.27-14.27,12.27,12.27,0,0,1-1.18,1.56,23.27,23.27,0,0,1-12.54,6.88c-4.74,1-8.62.34-11.21-2-4.59-4.18-4.28-13.91-.69-18.4s10-7.44,16.27-7.74c4.4-.2,8.14,1.05,10.55,3.53l0,0a2.57,2.57,0,0,1,1.18,1.51,84.92,84.92,0,0,1,3,29.39l-.07.84c-.52,5.67-1,11-5.33,15.79A15.3,15.3,0,0,1,423.89,74.65Zm2.77-50.83-.71,0c-4.71.22-9.95,2.66-12.45,5.79-2.18,2.73-2.1,9.28.13,11.31,1.72,1.56,4.87,1.16,6.6.78A18.42,18.42,0,0,0,430,36.45c2-2.19,3.11-7,2.59-10.58l-.07-.08C431.29,24.51,429.22,23.82,426.66,23.82Z"/><path class="cls-2" d="M471.53,60.14a17.39,17.39,0,0,1-5.61-1c-6.86-2.33-13.66-9.28-13.39-18a24.13,24.13,0,0,1,3-11.68,15.51,15.51,0,0,1,10.23-7.56,18,18,0,0,1,6,0c5.91.86,10.09,3.85,11.18,8,.95,3.59-.64,7.78-4,10.41-2.82,2.25-6.25,3.13-9.23,3.69a35.54,35.54,0,0,1-11.62.53,15.18,15.18,0,0,0,9.47,9.69c2.23.76,7.84,1.94,11.75-3.47a2.6,2.6,0,0,1,4.21,3A14.54,14.54,0,0,1,471.53,60.14ZM457.86,39.25a29.17,29.17,0,0,0,10.91-.32c2.36-.45,5-1.11,7-2.65,1.7-1.36,2.59-3.42,2.17-5-.64-2.43-4-3.75-6.91-4.18a13.11,13.11,0,0,0-4.27-.06A10.29,10.29,0,0,0,460,32.09,17.49,17.49,0,0,0,457.86,39.25Z"/><path class="cls-2" d="M783.92,63.62a8.51,8.51,0,0,1-.88,0c-3.52-.35-7.07-1.86-10.84-4.63a18.09,18.09,0,0,1-4.89-5c-1.57-2.55-2.27-5.78-2.14-9.86a24.28,24.28,0,0,1,3-11.69,15.53,15.53,0,0,1,10.23-7.55,18,18,0,0,1,6,0c5.91.86,10.09,3.85,11.18,8,.95,3.59-.64,7.78-4,10.41-2.82,2.25-6.25,3.13-9.23,3.69a35.13,35.13,0,0,1-11.88.49,9.69,9.69,0,0,0,1.24,3.76,13.17,13.17,0,0,0,3.53,3.5c3,2.2,5.71,3.4,8.29,3.65s8-2.12,9.52-4.18a2.6,2.6,0,1,1,4.2,3.05C794.87,60.62,788.4,63.62,783.92,63.62ZM770.5,42.23a29,29,0,0,0,10.91-.32c2.36-.45,5-1.11,7-2.65,1.7-1.36,2.59-3.42,2.17-5-.64-2.43-4-3.76-6.91-4.18a12.84,12.84,0,0,0-4.27-.06,10.29,10.29,0,0,0-6.69,5.08A17.49,17.49,0,0,0,770.5,42.23Z"/><path class="cls-2" d="M527.35,13a3.73,3.73,0,0,1-3.46-2.19,4.55,4.55,0,0,1,2-5.56A2.6,2.6,0,0,1,528.06,5a2.57,2.57,0,0,1,1.61,1.43l1,2.23a2.66,2.66,0,0,1,.22,1.21A3.37,3.37,0,0,1,528,13,5,5,0,0,1,527.35,13Zm.18-5.18,1.15,1.83h0a1.05,1.05,0,0,0,0-.88A1.56,1.56,0,0,0,527.53,7.84Z"/><path class="cls-2" d="M527.57,64.19A2.59,2.59,0,0,1,525,61.75c-.68-11.26-1.18-22.68-1.5-34A2.59,2.59,0,0,1,526,25.12a2.55,2.55,0,0,1,2.67,2.52c.32,11.22.82,22.6,1.49,33.8a2.6,2.6,0,0,1-2.43,2.75Z"/><path class="cls-2" d="M553.48,67.06A18,18,0,0,1,540,60.54a2.6,2.6,0,0,1,4-3.35,12.86,12.86,0,0,0,9.8,4.68,9.82,9.82,0,0,0,8.54-5.39,7.79,7.79,0,0,0-2.11-9.06,16.36,16.36,0,0,0-5.41-2.18c-.89-.25-1.8-.5-2.71-.81-4.78-1.62-7.79-4.67-8.26-8.37a9.84,9.84,0,0,1,.29-3.67,15.06,15.06,0,0,1,13.93-11c3.74,0,7,1.45,8.66,4.06a2.6,2.6,0,0,1-4.36,2.83c-.69-1.06-2.34-1.71-4.21-1.69a9.82,9.82,0,0,0-9,7.11,4.93,4.93,0,0,0-.18,1.74c.25,1.91,2.63,3.37,4.78,4.1.77.26,1.58.48,2.43.72a20.52,20.52,0,0,1,7.12,3A12.86,12.86,0,0,1,567,58.6a15,15,0,0,1-13.14,8.46Z"/><path class="cls-2" d="M610.24,79.76h-.07a2.6,2.6,0,0,1-2.53-2.67c.45-16.92.34-34.08-.32-51a2.6,2.6,0,0,1,5.19-.21c.67,17,.78,34.32.32,51.35A2.59,2.59,0,0,1,610.24,79.76Z"/><path class="cls-2" d="M622.55,60.36a29.3,29.3,0,0,1-7.5-1.08c-1.62-.43-7.4-4-7.13-7.54a2.6,2.6,0,0,1,5.17-.15,11.06,11.06,0,0,0,3.34,2.68,20.86,20.86,0,0,0,8.35.74,10.33,10.33,0,0,0,6.55-3.46,12.23,12.23,0,0,0,1.93-3.77,19.28,19.28,0,0,0,.57-11.64,12.64,12.64,0,0,0-7-8.19c-3.33-1.37-7.53-1.16-13.2.66a2.61,2.61,0,0,1-4.9.07,3.32,3.32,0,0,1,.12-2.62,4.85,4.85,0,0,1,2.86-2.29c4.44-1.46,11.06-3.12,17.1-.63a17.91,17.91,0,0,1,10,11.52,24.11,24.11,0,0,1-.64,14.82,17.47,17.47,0,0,1-2.78,5.32,15.4,15.4,0,0,1-9.85,5.35A20.84,20.84,0,0,1,622.55,60.36Zm-9.45-8.23Zm.5-25.27Z"/><path class="cls-2" d="M670.09,63.32a17.46,17.46,0,0,1-2.15-.13A18.32,18.32,0,0,1,653,51.35c-1.94-5.36-1.1-12.48,2.09-17.7a14.55,14.55,0,0,1,10.51-7.27,19.58,19.58,0,0,1,19,9.27,17.88,17.88,0,0,1-.31,19.85A17,17,0,0,1,670.09,63.32Zm-3.78-31.79a9.5,9.5,0,0,0-6.75,4.82c-2.37,3.89-3,9.34-1.63,13.24A13.06,13.06,0,0,0,668.58,58a11.79,11.79,0,0,0,11.48-5.41,12.69,12.69,0,0,0,.21-14.23,14.38,14.38,0,0,0-14-6.86ZM666,29h0Z"/><path class="cls-2" d="M816.92,65.29A2.59,2.59,0,0,1,814.34,63c-1.19-11.87-2.15-24-2.84-35.9a2.59,2.59,0,0,1,5.18-.3c.69,11.88,1.64,23.88,2.83,35.68a2.59,2.59,0,0,1-2.33,2.84Z"/><path class="cls-2" d="M816.53,41.4a2.67,2.67,0,0,1-1.25-.32,2.6,2.6,0,0,1-1-3.53,20.83,20.83,0,0,1,13.36-10.13,2.6,2.6,0,1,1,1.17,5.06,15.53,15.53,0,0,0-10,7.57A2.62,2.62,0,0,1,816.53,41.4Z"/><path class="cls-3" d="M401,769.43,581.45,813.5l-.09.82c2.77.32,5.56.52,8.35.6,1.72-11.78,5.09-34.4,9.34-62.84,2.3-15.36,4.86-32.42,7.55-50.39.18-1.18.35-2.36.53-3.55,16.23-108.21,37.14-247,37.14-247s3.38-18.05,44.32-16.16q66.64,4.23,133.32,8.25,35.22,2.12,70.43,4.12c17.16,1,40.52,1.46,57.15,5.14,14.08,3.11,10.4,22.82,9.18,33.25L912.17,778s-1.33,13.18-20.75,13.28l-74.88,8-.12-.82c-2.3.34-4.62.6-6.94.77.7-4.15.2-8.49-.3-12.71q-1.21-10.05-2.42-20.11c-1-8-2.38-16.89-8.69-21.94a5.21,5.21,0,0,0-2.19-1.15c-1.86-.34-3.4,1-4.58,2.63a11.58,11.58,0,0,0-2,.6,4.17,4.17,0,0,0-.19-.44c-1.31-2.77-4-5.11-7.09-5-4.72.15-7.36,5.44-8.54,10a78.22,78.22,0,0,0-2,10.92c-.34.29-.66.6-1,.91a6.14,6.14,0,0,0-.69-.75c-7.38-6.81-12.37,5.07-15.35,10.26-4.65,8.11-7.6,14.65-11.74,23.05-3.91,7.92-10,15-16.84,21.1a17,17,0,0,0-5.7,1,10.53,10.53,0,0,1-2.56.73,2.51,2.51,0,0,1-2.34-1v0l-64.77,8.51-41.92,5.51c-6.24.82-12.79,1.58-18.9.58a2.44,2.44,0,0,1,0,.27c-2.76-.91-5.87.47-8.83.3a16.93,16.93,0,0,1-4.56-1.13l-4.86-1.7,0,0L503,811.33l-20-5.36c-42.31-11.31-84.67-22.64-127.65-31.09-4.15-.82-8.69-1.88-12-4.33h0q-2.19-4.47-4.7-8.79c16.12.63,32.6,1.32,48.9,2l1.38,0A106.48,106.48,0,0,1,401,769.2Z"/><path class="cls-4" d="M725.85,816.55c6.85-6.1,12.93-13.18,16.84-21.1,4.14-8.4,7.09-14.94,11.74-23.05,3-5.19,8-17.07,15.35-10.26a6.14,6.14,0,0,1,.69.75c.32-.31.64-.62,1-.91a78.22,78.22,0,0,1,2-10.92c1.18-4.57,3.82-9.86,8.54-10,3.06-.11,5.78,2.23,7.09,5a4.17,4.17,0,0,1,.19.44,11.58,11.58,0,0,1,2-.6c1.18-1.62,2.72-3,4.58-2.63a5.21,5.21,0,0,1,2.19,1.15c6.31,5.05,7.72,13.92,8.69,21.94q1.22,10,2.42,20.11c.5,4.22,1,8.56.3,12.71a21.18,21.18,0,0,1-.69,2.8,14.9,14.9,0,0,1-.55,1.45,41.57,41.57,0,0,1-4,7c-4.94,7.48-10.23,16.37-17.79,22.13-.58.45-1.18.88-1.79,1.28-10.25,6.79-25.2,8-37.21,9.15-5,.47-10,.72-14.86,2.09-5.09,1.44-9.73,4.07-14.54,6.27-.73.35-1.47.67-2.21,1a59.57,59.57,0,0,1-53.9-4.7A79.09,79.09,0,0,1,651.55,843a80.6,80.6,0,0,1-1.4-8.87l.2,0a55.17,55.17,0,0,1,.12-8.33l64.77-8.51v0a2.51,2.51,0,0,0,2.34,1,10.53,10.53,0,0,0,2.56-.73A17,17,0,0,1,725.85,816.55Z"/><path class="cls-5" d="M589.66,832.11a2.44,2.44,0,0,0,0-.27c6.11,1,12.66.24,18.9-.58l41.92-5.51a55.17,55.17,0,0,0-.12,8.33l-.2,0a80.6,80.6,0,0,0,1.4,8.87,79.09,79.09,0,0,0,10.37,4.68,59.57,59.57,0,0,0,53.9,4.7c.74-.31,1.48-.63,2.21-1q-1,5.28-2,10.58l1.19.23c-2.76,8.55-10.42,15.3-18.15,20.38-6.4,4.2-13.58,8-21.23,7.71-5.67-.18-11-2.55-16.19-4.87l-3.29-1.48Q627.53,870,596.71,856.2l0,0a42.46,42.46,0,0,1-6.05-2.48h-.14q-.35-7.63-.79-15.25l-.22,0C589.67,836.32,589.71,834.21,589.66,832.11Z"/><path class="cls-6" d="M658.33,883.92H591.5q-.27-15.12-1-30.23h.14a42.46,42.46,0,0,0,6.05,2.48l0,0Q627.52,870.06,658.33,883.92Z"/><path class="cls-5" d="M308.84,446c3-.42,5.92-.91,8.86-1.47a4.58,4.58,0,0,0,2.31,3,572.11,572.11,0,0,0,122,50.15l.78-2.4a12.3,12.3,0,0,1-4.54-5.25,29.68,29.68,0,0,1-5.64-8.29l7.05,2.05.1-.35a510.82,510.82,0,0,1,80.37,29c7.28,3.35,14.56,6.91,20.85,11.88,19.56,15.41,26.62,41.44,32.54,65.63l22.68,92.67c.26,1,.51,2.06.76,3.09a3.49,3.49,0,0,0,.35-1.52l9.86,14c-.18,1.19-.35,2.37-.53,3.55q-2.88-2.36-6-4.42l-.61.93c-18.24-8.23-36.8-16.56-56.62-19.31-8.57-1.2-17.25-1.33-25.9-1.45l-65.72-1-.22.89-1.23-.32a185.42,185.42,0,0,1-.93,64.3,182.44,182.44,0,0,1-6.22,23.79l-.41.67c-17.19-.56-35.41-1.26-53.88-2-.8-.31-1.62-.6-2.43-.88l1.05.83c-16.3-.66-32.78-1.35-48.9-2-13.21-.52-26.17-1-38.59-1.4-14.88-.49-31-1.44-43.11-9.5a37,37,0,0,1-4.63-3.61c-8.39-7.71-12.57-18.87-16.12-29.7A533.11,533.11,0,0,1,210,536.19c.73-24.23,4-50.49,21-67.82C250.37,448.53,281.11,446.64,308.84,446Z"/><path class="cls-4" d="M535.35,731.66c-22.57,2.5-44.69,9.19-67.39,9.4-5.16,0-10.51-.21-15.37,1.28a21,21,0,0,1-3.21-1,185.42,185.42,0,0,0,.93-64.3l1.23.32.22-.89,65.72,1c8.65.12,17.33.25,25.9,1.45C563.2,681.64,581.76,690,600,698.2l.61-.93q3.1,2.07,6,4.42c-2.69,18-5.25,35-7.55,50.39l-5.19,1.22a12,12,0,0,1-3.66.46,8.86,8.86,0,0,1-3.68-1.31c-7.56.76-15.3-1.35-22-4.93-6.5-3.46-12.19-8.21-17.55-13.26q-3.2-.28-6.34-.88A17.17,17.17,0,0,1,535.35,731.66Z"/><path class="cls-3" d="M452.59,742.34c4.86-1.49,10.21-1.24,15.37-1.28,22.7-.21,44.82-6.9,67.39-9.4a17.17,17.17,0,0,0,5.24,1.72q3.15.6,6.34.88c5.36,5,11.05,9.8,17.55,13.26,6.74,3.58,14.48,5.69,22,4.93a8.86,8.86,0,0,0,3.68,1.31,12,12,0,0,0,3.66-.46l5.19-1.22c-4.25,28.44-7.62,51.06-9.34,62.84-2.79-.08-5.58-.28-8.35-.6l.09-.82L401,769.43l.06-.23a106.48,106.48,0,0,0-12.16-5.42c18.47.75,36.69,1.45,53.88,2l.41-.67a182.44,182.44,0,0,0,6.22-23.79A21,21,0,0,0,452.59,742.34Z"/><path class="cls-5" d="M343.3,770.55c3.28,2.45,7.82,3.51,12,4.33,43,8.45,85.34,19.78,127.65,31.09l20,5.36,68.43,18.3,0,0,4.86,1.7a16.93,16.93,0,0,0,4.56,1.13c3,.17,6.07-1.21,8.83-.3.05,2.1,0,4.21-.13,6.31l.22,0q.45,7.62.79,15.25.69,15.1,1,30.23H245.82a1058.83,1058.83,0,0,0,9.59-123h-.14a57.23,57.23,0,0,1,1.62-10.08c12.12,8.06,28.23,9,43.11,9.5,12.42.4,25.38.88,38.59,1.4q2.52,4.32,4.7,8.79Z"/><path class="cls-4" d="M536.59,340c-1.51-.08-3-.1-4.53-.08v-.63L524.11,334q-5.43-4.23-11.2-8l-.19.29-6-3a24.21,24.21,0,0,1-5.33-3.29q.57-4.74,1.15-9.48l.56.07a44.3,44.3,0,0,1,11.45,7l-.34.51q9.51,6.36,18.75,13.12a25.31,25.31,0,0,1,5.08,2.52,9.77,9.77,0,0,1,4,5.13,14.12,14.12,0,0,1,.43,3.24,13.25,13.25,0,0,1-.46,5.19l-.33-.12a9.1,9.1,0,0,0-.53-2.13A9.39,9.39,0,0,0,536.59,340Z"/><path class="cls-4" d="M498.7,380.42l-.18,0a63.38,63.38,0,0,0,.43-18.55h0q-.47-6.82-1.11-13.63a78.8,78.8,0,0,1,34.19-8.32c1.51,0,3,0,4.53.08a9.39,9.39,0,0,1,4.56,5.08c-1,11.26-4,22.52-10.37,31.8-6.86,9.92-18.08,17.27-30.14,17.48a24.92,24.92,0,0,1-4.87-.37A132.06,132.06,0,0,0,498.7,380.42Z"/><path class="cls-4" d="M524.11,334l7.94,5.24v.63a78.8,78.8,0,0,0-34.19,8.32q-.39-4.38-.88-8.75a45.39,45.39,0,0,0,2.83-12.36l.67,0,.87-7.17a24.21,24.21,0,0,0,5.33,3.29l6,3,.19-.29Q518.67,329.78,524.11,334Z"/><path class="cls-7" d="M300.21,309.17a20.38,20.38,0,0,0-2.1,2.46c-.72,1-1.46,2-2.27,2.89a8.92,8.92,0,0,1-3.31,2.45l-.87-.47a15.29,15.29,0,0,1-4.88-8.13l-.8.18c-3.67-16.2-8.65-26.64-10-43.33-1.2-15.25,0-31.76,8.1-44.41h-.76a16.93,16.93,0,0,1,2.59-6.87,42.07,42.07,0,0,1,11.8-12.73,99.69,99.69,0,0,1,11.47-18c11.84-14.17,29.67-22.5,47.92-25.32,17-2.62,34.35-.81,51.14,2.95a45.75,45.75,0,0,1,12.9-.75,40.08,40.08,0,0,1,12.34,3c10.11.93,19.67,7.53,28.07,13.87,10.69,8.07,21.46,16.29,29.76,26.79s19.7,31.1,18.8,44.45c.9,5.13,1.87,10.25.82,15.29a19.65,19.65,0,0,1-5.79,10.27l-.85,0c0-.25,0-.49,0-.74,0-2,.3-4,.4-6a26.91,26.91,0,0,0-.7-7.59l.69-.2c-.38-1.44-.71-2.91-1.15-4.3a24.25,24.25,0,0,0-18.49-16.21l-.25.35-.57-.4a13.51,13.51,0,0,0-4.62-2.47c-2.62-.61-5.33.37-8,.32l0-.93c-9.64-3.3-20.19,2.35-27.25,9.69s-12.16,16.5-19.82,23.22c-10.63,9.33-25,12.93-39.31,13.64a48.68,48.68,0,0,1-13.14,9.19l-.25.12v0a75.1,75.1,0,0,1-12.66,12.09c-.29,5.32-2.69,10.29-5,15.08a5.25,5.25,0,0,1-2.05,2.59l-.42-.31h0a38.22,38.22,0,0,1-9.29,9.27l.65,2.06a5.2,5.2,0,0,1-2.37.39q-14.43-10.5-29.55-20C307.8,310.59,303.89,308.49,300.21,309.17Z"/><path class="cls-4" d="M432,354.71a4,4,0,0,0,.08-1.08,4.43,4.43,0,0,0-.31-1.88c-1.06-2.17-1.86-1.09-2.15.51a7.06,7.06,0,0,0,0,2.29c.14.81.47,1.39,1,1.32A1.4,1.4,0,0,0,432,354.71ZM318.68,444.34a23.54,23.54,0,0,1,2.25-8.74l-.4-.2c5.72-15.85,5-38.43,4.1-55.94a26.7,26.7,0,0,0-6.18-11.06c-5.09,1.54-10.93.28-15.49-2.62-5.3-3.39-9.1-8.71-12.09-14.24-4.4-8.12-7.4-17.8-4.44-26.55,1.07-3.17,3.31-6.26,6.23-7.61l-.13-.41a8.92,8.92,0,0,0,3.31-2.45A25.27,25.27,0,0,1,315,323.89l-.08.11Q345,346.62,375,369.25l.69-.73q2.69,2.55,5.49,5c.19-.94.4-1.86.62-2.78l.52.07a15,15,0,0,1,2.46-6.68l-1.42-.53a52.79,52.79,0,0,1-9.17-5.74l-.72.84q-15.9-13.63-32.84-26a5.2,5.2,0,0,0,2.37-.39l-.65-2.06a38.22,38.22,0,0,0,9.29-9.27h0l.42.31a5.25,5.25,0,0,0,2.05-2.59c2.35-4.79,4.75-9.76,5-15.08a75.1,75.1,0,0,0,12.66-12.09v0l.25-.12a48.68,48.68,0,0,0,13.14-9.19c14.27-.71,28.68-4.31,39.31-13.64,7.66-6.72,12.76-15.87,19.82-23.22s17.61-13,27.25-9.69l0,.93c2.7.05,5.41-.93,8-.32a13.51,13.51,0,0,1,4.62,2.47l.57.4.25-.35A24.25,24.25,0,0,1,503.54,255c.44,1.39.77,2.86,1.15,4.3l-.69.2a26.91,26.91,0,0,1,.7,7.59c-.1,2-.42,4-.4,6,0,.25,0,.49,0,.74a10,10,0,0,0,1,3.89c1.07,9.82,1.74,20-1.51,29.13h0a5.63,5.63,0,0,0-1.26,3.49,1.23,1.23,0,0,0,0,.19q-.58,4.74-1.15,9.48l-.87,7.17-.67,0A45.39,45.39,0,0,1,497,339.46q.5,4.37.88,8.75.64,6.81,1.11,13.63h0a63.38,63.38,0,0,1-.43,18.55l.18,0A132.06,132.06,0,0,1,495.77,394a53.37,53.37,0,0,1-2.9,7.93,23.7,23.7,0,0,0-1.18,2.75l-.15-.05a101.09,101.09,0,0,1-14.09,28.76c-4.46,6.37-9.71,12.33-16.27,16.51-8.86,5.66-19.49,7.62-30.07,7l-.2,3a31.15,31.15,0,0,0,1.66,21.88,29.68,29.68,0,0,0,5.64,8.29,12.3,12.3,0,0,0,4.54,5.25l-.78,2.4a572.11,572.11,0,0,1-122-50.15,4.58,4.58,0,0,1-2.31-3Zm165.6-94.89c1.28-.16,1.49-1,1.46-2.24a4.44,4.44,0,0,0-.32-1.88c-1.05-2.17-1.86-1.09-2.14.51S483.23,349.58,484.28,349.45Z"/><path class="cls-4" d="M388.87,763.78l-1.38,0-1.05-.83C387.25,763.18,388.07,763.47,388.87,763.78Z"/><path class="cls-4" d="M340.65,332.67q16.94,12.33,32.84,26l.72-.84a52.79,52.79,0,0,0,9.17,5.74l1.42.53a15,15,0,0,0-2.46,6.68l-.52-.07c-.22.92-.43,1.84-.62,2.78q-2.81-2.4-5.49-5l-.69.73Q345,346.63,314.9,324l.08-.11a25.27,25.27,0,0,0-19.14-9.37c.81-.9,1.55-1.91,2.27-2.89a20.38,20.38,0,0,1,2.1-2.46c3.68-.68,7.59,1.42,10.89,3.49Q326.21,322.17,340.65,332.67Z"/><path class="cls-2" d="M404.23,411.45a29.78,29.78,0,0,1-12-2.06c-6.61-2.88-11.67-9.43-13.53-17.53-1.27-5.5-1.17-11.67.3-18.84.19-1,.41-1.91.63-2.85a2.24,2.24,0,1,1,4.36,1q-.31,1.34-.6,2.7c-1.34,6.54-1.44,12.08-.32,16.94,1.52,6.62,5.72,12.15,10.95,14.43,3.82,1.66,8.21,1.77,12.38,1.65,7.53-.22,13-1.22,17.64-3.24a53.63,53.63,0,0,0,11-6.9c4.62-3.53,9.86-7.85,13.67-13.11,3.92-5.42,5.9-11.41,5.6-16.88a2.24,2.24,0,0,1,4.47-.25c.37,6.49-1.92,13.51-6.44,19.76-4.15,5.73-9.69,10.32-14.57,14.05a57.85,57.85,0,0,1-11.94,7.44c-5.21,2.26-11.16,3.37-19.29,3.62Q405.4,411.45,404.23,411.45Z"/><path class="cls-2" d="M455.3,361.93a2.27,2.27,0,0,1-.76-.14,86.2,86.2,0,0,0-17.7-4.31,2.25,2.25,0,0,1,.61-4.45,90.48,90.48,0,0,1,18.62,4.55,2.24,2.24,0,0,1-.77,4.35Z"/><path class="cls-2" d="M437.15,357.5l-.3,0c-1.81-.24-3.45-.42-5-.54h-.1c-.74-.05-1.49-.11-2.25-.15a94.5,94.5,0,0,0-9.52,0,2.24,2.24,0,1,1-.23-4.47,95,95,0,0,1,10,0c.79,0,1.57.09,2.36.15h.1c1.67.12,3.39.31,5.28.56a2.24,2.24,0,0,1-.29,4.47Z"/><path class="cls-2" d="M385.12,365.66a2.24,2.24,0,0,1-.92-4.29l.27-.13a93.06,93.06,0,0,1,35.25-8.92,2.24,2.24,0,0,1,.23,4.47,88.84,88.84,0,0,0-33.59,8.51l-1.11-1.95,1,2-.23.1A2.07,2.07,0,0,1,385.12,365.66Z"/><path class="cls-2" d="M461.37,365.42a2.25,2.25,0,0,1-.94-4.29,18.47,18.47,0,0,1,12.49-.94,2.24,2.24,0,1,1-1.23,4.31,13.9,13.9,0,0,0-9.4.71A2.17,2.17,0,0,1,461.37,365.42Z"/><path class="cls-2" d="M500.13,396.57a27.09,27.09,0,0,1-4.75-.41,19.41,19.41,0,0,1-6.14-2.12c-4.5-2.5-8-7.12-9.86-13-1.57-4.93-1.88-10.13-2.09-15.46a2.24,2.24,0,0,1,4.48-.17c.2,5.2.48,9.87,1.88,14.28,1.52,4.8,4.28,8.51,7.77,10.45a14.92,14.92,0,0,0,4.74,1.63,23,23,0,0,0,4.44.33c10.57-.18,21.42-6.51,28.34-16.51,5.56-8.05,8.92-18.38,10-30.72.07-.77.13-1.54.18-2.3a2.24,2.24,0,0,1,4.47.29c-.05.8-.11,1.61-.18,2.41-1.13,13.11-4.75,24.17-10.76,32.87-7.73,11.17-20,18.24-31.95,18.45Z"/><path class="cls-2" d="M480.78,362a2.2,2.2,0,0,1-1.66-.75,2.23,2.23,0,0,1,.16-3.16,78.69,78.69,0,0,1,17.6-11.92A81.28,81.28,0,0,1,532,337.64c1.67,0,3.21,0,4.67.09l.59,0a2.24,2.24,0,1,1-.22,4.47l-.61,0c-1.36-.07-2.8-.09-4.38-.07a76.61,76.61,0,0,0-33.21,8.08,73.93,73.93,0,0,0-16.6,11.24A2.21,2.21,0,0,1,480.78,362Z"/><path class="cls-2" d="M533.43,333.82a2.27,2.27,0,0,1-1.29-.41l-.5-.36c-6.24-4.56-12.52-9-18.7-13.09-1.39-.95-2.76-1.86-4.13-2.76a2.25,2.25,0,0,1,2.47-3.75l4.17,2.79c6.21,4.16,12.55,8.59,18.81,13.16l.47.34a2.25,2.25,0,0,1-1.3,4.08Z"/><path class="cls-2" d="M376.18,363.21a2.23,2.23,0,0,1-1.47-.56l-2.67-2.3c-10.57-9.06-21.57-17.76-32.71-25.87-9.47-6.89-19.37-13.6-29.42-19.93-3-1.87-6.42-3.71-9.29-3.18a5.53,5.53,0,0,0-1.05.32,2.24,2.24,0,1,1-1.77-4.11,9.31,9.31,0,0,1,2-.62c4.41-.81,8.8,1.46,12.52,3.8,10.14,6.38,20.12,13.14,29.67,20.09,11.24,8.18,22.33,17,33,26.09.91.78,1.81,1.55,2.71,2.34a2.24,2.24,0,0,1-1.48,3.93Z"/><path class="cls-2" d="M375,371.49a2.23,2.23,0,0,1-1.34-.45L349.05,352.5l-35.49-26.71-5-3.75a2.25,2.25,0,0,1,2.7-3.59l5,3.75,35.5,26.72,24.62,18.53a2.24,2.24,0,0,1-1.35,4Z"/><path class="cls-2" d="M524.52,336.58a2.25,2.25,0,0,1-1.38-.48l-.41-.32c-3.59-2.8-7.31-5.45-11-7.9-1-.66-2-1.31-3-1.94a2.24,2.24,0,1,1,2.37-3.81c1,.65,2.08,1.32,3.11,2,3.84,2.51,7.66,5.24,11.35,8.12l.42.32a2.24,2.24,0,0,1-1.39,4Z"/><path class="cls-2" d="M430.53,358.11c-1.28,0-2.74-.81-3.16-3.18h0a9.28,9.28,0,0,1,0-3.06c.51-2.83,2-3.44,2.85-3.56s2.41.18,3.52,2.45a6.65,6.65,0,0,1,.54,2.83,6,6,0,0,1-.16,1.68,3.59,3.59,0,0,1-3.26,2.82Zm1.31-3.75h0Zm-2-.14h0Z"/><path class="cls-2" d="M484.2,351.69a2.92,2.92,0,0,1-2.13-.92c-1.56-1.65-1.1-4.72-1-5.33.49-2.81,2-3.43,2.84-3.55s2.42.18,3.52,2.46a6.54,6.54,0,0,1,.55,2.82c.08,3.53-2.11,4.34-3.43,4.5A2.17,2.17,0,0,1,484.2,351.69Zm1.3-3.76h0Zm-2.22-2.09h0Z"/><path class="cls-2" d="M471.68,399.76a2.19,2.19,0,0,1-1.31-.43,2.23,2.23,0,0,1-.5-3.13,19.46,19.46,0,0,0,2.8-4.68,5.19,5.19,0,0,0,0-4.12,9.27,9.27,0,0,0-2.05-2.28,19.47,19.47,0,0,1-1.78-1.75c-3.76-4.31-3.69-10.16-3.3-15.79a2.24,2.24,0,1,1,4.47.31c-.32,4.69-.42,9.52,2.2,12.53a17.09,17.09,0,0,0,1.42,1.38,12.94,12.94,0,0,1,3,3.51,9.62,9.62,0,0,1,.24,7.74,23.78,23.78,0,0,1-3.39,5.78A2.23,2.23,0,0,1,471.68,399.76Z"/><path class="cls-2" d="M446.53,433.83a2.24,2.24,0,0,1-.27-4.47c4.6-.56,9.19-.91,13.63-1a2.21,2.21,0,0,1,2.31,2.18,2.25,2.25,0,0,1-2.18,2.31c-4.31.12-8.75.46-13.22,1Z"/><path class="cls-2" d="M437.38,326.11a2.25,2.25,0,0,1-1.28-.4A15.43,15.43,0,0,0,424,323.35a2.24,2.24,0,1,1-1-4.37,20,20,0,0,1,15.61,3,2.25,2.25,0,0,1-1.28,4.09Z"/><path class="cls-2" d="M477.53,323.36a2.24,2.24,0,0,1-1.23-4.12,28.57,28.57,0,0,1,13.05-4.54,2.24,2.24,0,1,1,.4,4.47,24.14,24.14,0,0,0-11,3.82A2.21,2.21,0,0,1,477.53,323.36Z"/><path class="cls-2" d="M313.83,371.3a22.79,22.79,0,0,1-12.07-3.63c-4.92-3.15-9-7.94-12.86-15.07-5.79-10.69-7.33-20.22-4.59-28.33a15.08,15.08,0,0,1,7.41-8.93,9.43,9.43,0,0,1,4.57-.9,2.24,2.24,0,1,1-.25,4.47,5.06,5.06,0,0,0-2.42.49,10.7,10.7,0,0,0-5.06,6.3c-2.9,8.58.73,18.2,4.29,24.77s7.08,10.7,11.32,13.42,9.43,3.63,13.63,2.36a11.51,11.51,0,0,0,2.1-.84,2.24,2.24,0,0,1,2.05,4,17.44,17.44,0,0,1-2.86,1.15A18.38,18.38,0,0,1,313.83,371.3Z"/><path class="cls-2" d="M313,347.76a2.22,2.22,0,0,1-1.64-.72,10.48,10.48,0,0,0-8.69-3.21,2.24,2.24,0,1,1-.51-4.45A15,15,0,0,1,314.68,344a2.25,2.25,0,0,1-1.65,3.77Z"/><path class="cls-2" d="M379.61,284.54h-.51a2.25,2.25,0,0,1,0-4.49,2.78,2.78,0,0,1,.5,0c1.77,0,3.62,0,5.51-.13,16.19-.81,29-5.21,37.93-13.09,4.2-3.68,7.57-8.09,11.14-12.75a121.39,121.39,0,0,1,8.55-10.34c7.13-7.41,18.65-14,29.59-10.26a2.25,2.25,0,0,1-1.45,4.25c-8.95-3.07-18.74,2.7-24.91,9.12a115.58,115.58,0,0,0-8.22,10c-3.54,4.63-7.21,9.42-11.74,13.39-9.75,8.56-23.44,13.34-40.67,14.19C383.37,284.49,381.45,284.54,379.61,284.54Z"/><path class="cls-2" d="M286.49,313.12a2.25,2.25,0,0,1-2.19-1.77c-.17-.79-.34-1.56-.5-2.32-1.28-5.63-2.72-10.58-4.12-15.37-2.58-8.86-5-17.23-5.89-28.27-1.52-19.24,1.33-34.65,8.44-45.79a43.47,43.47,0,0,1,4.25-5.59,2.24,2.24,0,1,1,3.33,3,39,39,0,0,0-3.8,5c-6.58,10.31-9.19,24.78-7.75,43,.83,10.58,3.21,18.73,5.73,27.37,1.41,4.85,2.87,9.86,4.18,15.64.17.77.34,1.56.52,2.35a2.25,2.25,0,0,1-1.72,2.67A2.61,2.61,0,0,1,286.49,313.12Z"/><path class="cls-2" d="M294.58,209.63a2.3,2.3,0,0,1-1-.24,2.25,2.25,0,0,1-1-3c1.05-2.07,2.1-4.15,3.19-6.21a102.15,102.15,0,0,1,11.73-18.41c11.44-13.69,28.95-23,49.3-26.1,15.41-2.38,32.41-1.4,52,3,1.27.28,2.55.57,3.81.88a2.24,2.24,0,0,1-1.05,4.36c-1.24-.3-2.48-.59-3.73-.87-19-4.25-35.47-5.21-50.31-2.92-19.28,3-35.81,11.7-46.55,24.54a98.39,98.39,0,0,0-11.2,17.62c-1.08,2-2.12,4.11-3.15,6.16A2.26,2.26,0,0,1,294.58,209.63Z"/><path class="cls-2" d="M510.14,250.72h-.25a2.25,2.25,0,0,1-2-2.47c0-.11,0-.2,0-.29.83-12.44-10.22-32.54-18.34-42.82-8.29-10.49-19.48-18.93-29.35-26.39-8-6-17.32-12.54-26.92-13.42a22.79,22.79,0,0,0-6.36.29,2.25,2.25,0,0,1-.85-4.41,27.23,27.23,0,0,1,7.62-.35c10.77,1,20.73,7.91,29.21,14.32,10.09,7.61,21.52,16.24,30.17,27.18,8,10.1,20.26,31.5,19.28,46h-2.25l2.24.11a2.11,2.11,0,0,1,0,.26A2.23,2.23,0,0,1,510.14,250.72Z"/><path class="cls-2" d="M507.75,268a2.24,2.24,0,0,1-1.63-.71,16.55,16.55,0,0,1-3.59-7.43c-.12-.45-.24-.9-.35-1.35-.25-1-.49-2-.77-2.85a22,22,0,0,0-16.75-14.68,2.24,2.24,0,0,1,.78-4.41,26.59,26.59,0,0,1,20.24,17.74c.33,1,.59,2.09.85,3.11l.33,1.29a12.44,12.44,0,0,0,2.53,5.51,2.25,2.25,0,0,1-1.64,3.78Z"/><path class="cls-2" d="M435,459.18c-1.33,0-2.68,0-4-.13a71.09,71.09,0,0,1-15.59-2.74c-15.38-4.47-29-13.11-42.12-21.46a2.25,2.25,0,1,1,2.41-3.79c12.88,8.19,26.2,16.65,41,20.94a67,67,0,0,0,14.62,2.58c10.95.68,20.89-1.61,28.73-6.61,5.47-3.49,10.58-8.69,15.64-15.91a98.51,98.51,0,0,0,13.78-28.12c.2-.67.4-1.34.58-2a2.25,2.25,0,0,1,4.33,1.19c-.2.71-.41,1.42-.62,2.13a103.12,103.12,0,0,1-14.4,29.38c-5.4,7.71-10.93,13.31-16.9,17.12C454.73,456.64,445.33,459.18,435,459.18Z"/><path class="cls-2" d="M496.53,390.78a2.26,2.26,0,0,1-2.14-2.92,60,60,0,0,0,1.92-7.86,61,61,0,0,0,.42-17.89c-.23-1.86-.55-3.72-1-5.53a2.24,2.24,0,0,1,4.37-1c.43,1.94.78,3.94,1,5.95a64.86,64.86,0,0,1-2.51,27.65A2.23,2.23,0,0,1,496.53,390.78Z"/><path class="cls-2" d="M502.69,311.8a2.21,2.21,0,0,1-.93-.21,2.25,2.25,0,0,1-1.11-3c.39-.84.73-1.69,1-2.54a2.24,2.24,0,0,1,4.23,1.47,31.63,31.63,0,0,1-1.18,2.94A2.24,2.24,0,0,1,502.69,311.8Z"/><path class="cls-2" d="M503.8,309.05a2.24,2.24,0,0,1-.75-.13,2.26,2.26,0,0,1-1.36-2.87c3.15-8.86,2.42-18.76,1.4-28.13l-.32-2.81a2.24,2.24,0,0,1,4.45-.53l.32,2.84c1,9.47,1.84,20.38-1.62,30.14A2.26,2.26,0,0,1,503.8,309.05Z"/><path class="cls-2" d="M496.74,342.37a2.34,2.34,0,0,1-.85-.17,2.25,2.25,0,0,1-1.22-2.93,4.94,4.94,0,0,0,.19-.49.5.5,0,0,1,0-.13,42.89,42.89,0,0,0,2.69-11.75,41.16,41.16,0,0,0,.15-5.45,2.25,2.25,0,0,1,2.16-2.33,2.28,2.28,0,0,1,2.32,2.16,46.43,46.43,0,0,1-.16,6,47.62,47.62,0,0,1-2.95,12.89c-.09.26-.19.52-.29.78A2.27,2.27,0,0,1,496.74,342.37Z"/><path class="cls-2" d="M320.53,437.64a2,2,0,0,1-.76-.14,2.25,2.25,0,0,1-1.35-2.87c5.44-15.07,4.91-36.32,4-55.06l0-.66c-.07-1.33-.14-2.62-.2-3.88a2.24,2.24,0,0,1,4.48-.21c.06,1.25.13,2.54.2,3.85l0,.67c1,19.18,1.49,41-4.23,56.82A2.25,2.25,0,0,1,320.53,437.64Z"/><path class="cls-2" d="M438.43,492.45a2.23,2.23,0,0,1-1.58-.66l-.28-.28a31.86,31.86,0,0,1-6-8.89,33.5,33.5,0,0,1-1.77-23.47,2.24,2.24,0,0,1,4.29,1.31,29,29,0,0,0,1.55,20.29,27.31,27.31,0,0,0,5.21,7.66l.07.08.13.13a2.25,2.25,0,0,1-1.59,3.83Z"/><path class="cls-2" d="M442.76,768h-.08c-15.09-.49-32.22-1.13-53.9-2l-1.38,0-16.33-.67c-10.91-.45-21.82-.89-32.56-1.31-14.83-.59-27.45-1-38.58-1.4-16.32-.54-32-1.7-44.28-9.88a39,39,0,0,1-4.9-3.82c-8.83-8.12-13.11-19.6-16.74-30.66a532.81,532.81,0,0,1-26.25-182.11c.73-24.1,3.86-51.18,21.61-69.32,19.58-20,50-22.37,79.42-23.05h.11a2.25,2.25,0,1,1,0,4.49h-.06c-28.47.65-57.86,2.87-76.26,21.69C215.91,487,212.94,513,212.24,536.25a528.19,528.19,0,0,0,26,180.59c3.45,10.5,7.48,21.36,15.51,28.74a34.45,34.45,0,0,0,4.35,3.39c11.32,7.53,26.3,8.62,41.95,9.13,11.13.36,23.76.82,38.6,1.4,10.75.42,21.66.87,32.57,1.32l17.72.72c21.66.88,38.77,1.51,53.86,2a2.25,2.25,0,0,1-.07,4.49Z"/><path class="cls-2" d="M318.33,648.52a2.25,2.25,0,0,1-2.19-1.76c-2.91-13.17-3.39-26.83-3.86-40-.51-14.61-1-29.72-4.92-43.87a2.25,2.25,0,1,1,4.33-1.19c4,14.67,4.55,30,5.07,44.9.46,13,.94,26.47,3.76,39.23a2.23,2.23,0,0,1-1.7,2.67A2.05,2.05,0,0,1,318.33,648.52Z"/><path class="cls-2" d="M442.64,672.75a2,2,0,0,1-.34,0l-62.11-9.8-68.35-10.78a2.24,2.24,0,0,1,.7-4.43L443,668.29a2.24,2.24,0,0,1-.33,4.46Z"/><path class="cls-2" d="M443.16,767.36a2.25,2.25,0,0,1-2.12-3,182.84,182.84,0,0,0,7.06-87c-.3-1.87-.64-3.78-1-5.67a2.24,2.24,0,1,1,4.4-.85c.38,1.93.73,3.89,1,5.81a187.05,187.05,0,0,1-7.24,89.16A2.25,2.25,0,0,1,443.16,767.36Z"/><path class="cls-2" d="M450,745.57a2.24,2.24,0,0,1-1-4.27,21.58,21.58,0,0,1,2.88-1.11c4.49-1.37,9.25-1.4,13.81-1.37H468c13.57-.12,27.26-2.66,40.5-5.11,8.7-1.61,17.69-3.28,26.66-4.27l1.33-.15a2.24,2.24,0,1,1,.41,4.47l-1.15.12h-.1c-8.8,1-17.71,2.63-26.33,4.23-13.43,2.48-27.32,5.06-41.29,5.19h-2.24c-4.27,0-8.64,0-12.49,1.18a17.37,17.37,0,0,0-2.29.87A2.16,2.16,0,0,1,450,745.57Z"/><path class="cls-2" d="M600,700.44a2.31,2.31,0,0,1-.92-.2c-17.87-8.07-36.36-16.41-56-19.13-8.53-1.2-17.22-1.32-25.63-1.43l-65.72-1a2.25,2.25,0,0,1-2.21-2.28,2.21,2.21,0,0,1,2.28-2.21l65.72,1c8.54.12,17.38.24,26.17,1.47,20.29,2.82,39.07,11.29,57.24,19.49a2.24,2.24,0,0,1-.93,4.29Z"/><path class="cls-2" d="M583.36,754.85a43.47,43.47,0,0,1-19.93-5.35c-7.32-3.9-13.48-9.33-18-13.61l-.82-.78L543,733.59a2.24,2.24,0,0,1,3.13-3.21l1.54,1.49.81.77c4.33,4.08,10.2,9.25,17,12.9,4.88,2.59,12.46,5.51,20.76,4.67.73-.06,1.47-.16,2.21-.29a2.24,2.24,0,0,1,.79,4.41c-.88.16-1.74.27-2.58.35C585.59,754.79,584.47,754.85,583.36,754.85Z"/><path class="cls-2" d="M447.67,500.72a23.56,23.56,0,0,1-6.3-.94,574.11,574.11,0,0,1-122.44-50.34,6.81,6.81,0,0,1-3.46-4.7,3.4,3.4,0,0,1,1.82-3.4,2.24,2.24,0,0,1,2.86,3.32,3.13,3.13,0,0,0,.94.85,570,570,0,0,0,121.49,50c3.16.89,8.82,1.59,9.92-1.42a2.24,2.24,0,0,1,4.21,1.55C455.33,499.35,451.71,500.72,447.67,500.72Z"/><path class="cls-2" d="M596.93,687.93h-.25a2.25,2.25,0,0,1-1.93-1.71c-.25-1-.5-2-.76-3.07l-22.68-92.68c-6.3-25.72-13.46-50-31.75-64.4-6.2-4.9-13.48-8.42-20.4-11.61a510.1,510.1,0,0,0-80-28.9,2.24,2.24,0,1,1,1.17-4.33A513.27,513.27,0,0,1,521,510.38c7.17,3.3,14.72,7,21.3,12.16,19.41,15.29,26.85,40.35,33.33,66.85L598,680.45a2.39,2.39,0,0,1,.64.63,5.51,5.51,0,0,1,.93,3.09,5.73,5.73,0,0,1-.58,2.5A2.26,2.26,0,0,1,596.93,687.93Z"/><path class="cls-2" d="M559.63,682.75a2.24,2.24,0,0,1-2.19-1.79c-2.21-10.62-2.73-21.5-3.24-32q-1.4-29.28-2.8-58.56a2.24,2.24,0,0,1,4.48-.21q1.41,29.28,2.8,58.56c.5,10.35,1,21,3.15,31.33a2.24,2.24,0,0,1-1.74,2.65A2.4,2.4,0,0,1,559.63,682.75Z"/><path class="cls-2" d="M571.39,831.87a2.38,2.38,0,0,1-.58-.08l-88.76-23.74c-41.5-11.09-84.4-22.56-127.21-31-4.3-.86-9.2-2-12.88-4.74a2.24,2.24,0,1,1,2.69-3.59c2.92,2.18,7.24,3.17,11.06,3.93,43,8.44,85.93,19.93,127.49,31L572,827.46a2.24,2.24,0,0,1-.58,4.41Z"/><path class="cls-2" d="M343.29,772.78a2.23,2.23,0,0,1-1.34-.45,13.37,13.37,0,0,1-3.78-4.32,2.24,2.24,0,1,1,3.95-2.13,8.73,8.73,0,0,0,2.52,2.86,2.24,2.24,0,0,1-1.35,4Z"/><path class="cls-2" d="M581.46,815.74a2,2,0,0,1-.54-.07L400.44,771.6l-9.11-2.22a2.24,2.24,0,0,1,1.06-4.35l9.11,2.22L582,811.32a2.24,2.24,0,0,1-.53,4.42Z"/><path class="cls-2" d="M588.44,826.11a2.25,2.25,0,0,1-2.24-2.24c0-.26,0-.44,1.3-9.28,1.88-12.93,5.78-39,9.34-62.85l8.08-53.94c16-107,36.93-245.65,37.14-247,.16-.89,4.26-20,46.64-18.06,44.06,2.79,88.91,5.57,133.35,8.25,20.9,1.25,45.61,2.72,70.42,4.12,3,.17,6.3.32,9.67.49,15.93.76,34,1.63,47.84,4.7,15,3.31,12.64,22,11.23,33.19-.11.88-.22,1.72-.31,2.51L914.39,778.27A15.94,15.94,0,0,1,910.8,786c-2.81,3.38-8.43,7.4-19.25,7.49l-74.77,8a2.24,2.24,0,1,1-.47-4.45l74.88-8,.22,0c17.21-.09,18.52-11.15,18.53-11.26s0-.08,0-.13l46.5-292.26c.08-.7.19-1.56.3-2.45,1.65-13.07,2.41-26-7.75-28.26-13.48-3-31.34-3.84-47.09-4.6-3.38-.16-6.64-.32-9.7-.49-24.82-1.39-49.54-2.86-70.44-4.12-44.45-2.68-89.3-5.45-133.33-8.25-20.08-.92-30.48,3.12-35.66,6.68s-6.21,7.23-6.31,7.65c-.58,3.85-21.23,141-37.13,247l-8.08,53.94c-3.56,23.81-7.45,49.9-9.34,62.83-1,6.9-1.22,8.46-1.25,8.76A2.25,2.25,0,0,1,588.44,826.11Z"/><path class="cls-2" d="M596,834.55a41.34,41.34,0,0,1-6.69-.5,28,28,0,0,1-8.67-2.81,2.24,2.24,0,1,1,2.09-4,23.1,23.1,0,0,0,7.3,2.35c5.66.93,11.87.25,18.25-.59l36.62-4.81,5.3-.7L715,815l4.14-.54a2.24,2.24,0,1,1,.58,4.45l-4.14.54L650.77,828l-5.31.7-36.61,4.81A100.59,100.59,0,0,1,596,834.55Z"/><path class="cls-2" d="M245.49,888.68l-.32,0a2.26,2.26,0,0,1-1.91-2.54c.12-.83.23-1.66.34-2.5a1058.61,1058.61,0,0,0,9.57-122.73,2.25,2.25,0,0,1,2.24-2.2h.05a2.25,2.25,0,0,1,2.2,2.29A1065,1065,0,0,1,248,884.22c-.1.83-.22,1.68-.34,2.53A2.24,2.24,0,0,1,245.49,888.68Z"/><path class="cls-2" d="M591.61,893.38a2.25,2.25,0,0,1-2.24-2.22q0-3.54-.11-7.09V884c-.18-10-.5-20.15-1-30.16-.24-5.37-.5-10.35-.78-15.22a2.24,2.24,0,0,1,4.47-.27c.29,4.9.55,9.9.79,15.29.46,10,.79,20.24,1,30.29V884c0,2.38.08,4.74.11,7.12a2.26,2.26,0,0,1-2.22,2.27Z"/><path class="cls-2" d="M678.5,892.52h-.76c-6.16-.2-11.94-2.79-17-5.07l-1.63-.73-1.66-.75-40.26-18.11-21.37-9.61a2.24,2.24,0,0,1,1.84-4.09L619,863.76l40.25,18.11,1.68.75,1.61.73c5,2.22,10.07,4.51,15.35,4.67,7.4.24,14.53-3.8,19.92-7.34,9.31-6.11,15.11-12.57,17.25-19.19a19.7,19.7,0,0,0,.9-4.43,2.24,2.24,0,1,1,4.47.37,24.47,24.47,0,0,1-1.1,5.43c-2.5,7.73-8.73,14.78-19.06,21.57C694.5,888.22,686.85,892.52,678.5,892.52Z"/><path class="cls-2" d="M668.1,880.14a2.24,2.24,0,0,1-1.75-.84,86.5,86.5,0,0,1-17-35.87,84.49,84.49,0,0,1-1.44-9.11c-.15-1.37-.27-2.85-.35-4.37a2.25,2.25,0,0,1,2.13-2.35,2.22,2.22,0,0,1,2.35,2.12c.08,1.45.18,2.8.33,4.12a77.39,77.39,0,0,0,1.37,8.65,81.92,81.92,0,0,0,16.09,34,2.24,2.24,0,0,1-.34,3.15A2.21,2.21,0,0,1,668.1,880.14Z"/><path class="cls-2" d="M714.31,827.87a2.24,2.24,0,0,1-1.29-4.08,118.13,118.13,0,0,0,11.34-8.91c7.39-6.59,12.88-13.46,16.32-20.43,1-2,1.87-3.82,2.75-5.63,2.93-6,5.46-11.26,9.06-17.54.33-.57.68-1.23,1.06-1.94,2.41-4.46,5.7-10.57,10.71-11.41,2.4-.4,4.77.46,7,2.56a7.58,7.58,0,0,1,.94,1,12.88,12.88,0,0,1,2.37,6.25c1,6.46-.09,12.9-1.26,18.35-2.09,9.66-7.61,18.66-12.94,27.37-1.25,2-2.49,4.07-3.67,6.08a2.24,2.24,0,1,1-3.87-2.27c1.2-2,2.48-4.13,3.71-6.15,5.14-8.39,10.45-17.06,12.38-26,1.09-5,2.08-11,1.22-16.73a9,9,0,0,0-1.47-4.17,5.11,5.11,0,0,0-.45-.48c-1.81-1.67-2.9-1.49-3.26-1.42-2.84.47-5.76,5.88-7.5,9.11-.4.74-.77,1.44-1.12,2-3.52,6.14-6,11.3-8.92,17.27-.88,1.81-1.78,3.68-2.76,5.66-3.69,7.49-9.53,14.81-17.36,21.78a121.07,121.07,0,0,1-11.75,9.24A2.21,2.21,0,0,1,714.31,827.87Z"/><path class="cls-2" d="M777.14,827.24a2.21,2.21,0,0,1-1.39-.49,2.24,2.24,0,0,1-.36-3.15c5.12-6.45,10.93-13.77,13.29-22.07,2-6.91,1.55-14.34,1.16-21.53l-.12-2.27q-.62-11.29-1.22-22.6a23.14,23.14,0,0,0-1.29-7.76,1.34,1.34,0,0,0-.07-.18l0-.11c-.91-1.92-2.85-3.85-5-3.79-4,.12-6,6.4-6.45,8.33a77.48,77.48,0,0,0-1.94,10.6l-.06.56a2.24,2.24,0,1,1-4.46-.45l.06-.58a81.73,81.73,0,0,1,2.06-11.26c1.88-7.27,5.76-11.53,10.64-11.69,4.25-.13,7.66,3.05,9.19,6.29a6,6,0,0,1,.25.58c1.28,3,1.46,6.32,1.62,9.22q.6,11.31,1.22,22.6l.12,2.27c.39,7.2.83,15.36-1.33,23-2.6,9.17-8.7,16.86-14.09,23.64A2.23,2.23,0,0,1,777.14,827.24Z"/><path class="cls-2" d="M693.61,859a61.67,61.67,0,0,1-32.89-9.43c-1.12-.71-2.21-1.46-3.24-2.22a2.24,2.24,0,1,1,2.67-3.6c.94.7,1.94,1.38,3,2A57.1,57.1,0,0,0,715,850.28c.7-.3,1.41-.6,2.1-.94,1.31-.59,2.57-1.2,3.82-1.81A51.75,51.75,0,0,1,744.76,841l2.46-.22,1-.09c11.43-1.08,25.66-2.41,35.15-8.69.56-.38,1.11-.77,1.65-1.19,6.38-4.86,11.25-12.32,15.54-18.91l1.75-2.68a40.13,40.13,0,0,0,3.82-6.64,12.49,12.49,0,0,0,.49-1.3,18.27,18.27,0,0,0,.62-2.5c.65-3.86.15-8-.32-12l-2.42-20.11c-1-7.93-2.36-16.05-7.87-20.45a3.52,3.52,0,0,0-1.2-.7c-.85-.15-1.83,1-2.35,1.75a12.72,12.72,0,0,0-.87,1.35,2.24,2.24,0,1,1-3.89-2.23,19.26,19.26,0,0,1,1.13-1.76c2.53-3.48,5.09-3.83,6.8-3.52a7.45,7.45,0,0,1,3.17,1.59c6.84,5.48,8.46,14.58,9.53,23.44l2.42,20.11c.49,4.14,1.05,8.83.28,13.35a23.34,23.34,0,0,1-.77,3.12,15.86,15.86,0,0,1-.63,1.67,43.56,43.56,0,0,1-4.2,7.35l-1.74,2.66c-4.48,6.89-9.57,14.7-16.56,20-.61.47-1.26.94-1.91,1.37-10.43,6.9-25.27,8.29-37.2,9.41l-1,.1-2.49.22a47.48,47.48,0,0,0-22.31,6.1c-1.29.62-2.57,1.25-3.87,1.84-.73.35-1.51.69-2.28,1A60.16,60.16,0,0,1,693.61,859Z"/><path class="cls-2" d="M786.91,835.44a2.25,2.25,0,0,1-1.11-4.2c2.43-1.37,6.11-2.31,10-3.3s8-2,10-3.39c4.5-3,6.77-5.28,6.63-9.2-.09-3.17-2-6.17-3.79-8.69l-.06-.07c-.27-.38-.54-.75-.83-1.12a2.25,2.25,0,0,1,3.58-2.71c.3.4.59.79.87,1.18l.06.08c2.23,3.08,4.52,6.81,4.66,11.19.22,6.57-4.14,10.06-8.63,13.07-2.66,1.78-7.11,2.91-11.42,4-3.44.87-7,1.78-8.91,2.86A2.32,2.32,0,0,1,786.91,835.44Z"/><path class="cls-2" d="M343.37,315a2.24,2.24,0,0,1-.87-4.31,73.12,73.12,0,0,0,27.62-20.59,2.24,2.24,0,0,1,3.45,2.85,77.4,77.4,0,0,1-29.32,21.87A2.27,2.27,0,0,1,343.37,315Z"/><path class="cls-2" d="M342.38,332.46a2.24,2.24,0,0,1-1.29-4.08,35.71,35.71,0,0,0,8.74-8.73l.11-.14a35.61,35.61,0,0,0,2.31-3.79,2.24,2.24,0,0,1,4,2.09,42.73,42.73,0,0,1-2.71,4.42l-.12.16a40.39,40.39,0,0,1-9.73,9.66A2.19,2.19,0,0,1,342.38,332.46Z"/><path class="cls-2" d="M502.51,312.74a2.25,2.25,0,0,1-2.24-2.24,3.31,3.31,0,0,1,.05-.55,7.62,7.62,0,0,1,1.91-4.75,2.26,2.26,0,0,1,3.17,0,2.24,2.24,0,0,1,0,3.15h0a4.42,4.42,0,0,0-.62,2.17s0,0,0-.07A2.25,2.25,0,0,1,502.51,312.74Z"/><path class="cls-2" d="M343.3,772.79a2.25,2.25,0,1,1,1.58-3.84h0a2.25,2.25,0,0,1-1.59,3.83Z"/></g></g></svg>