<svg xmlns="http://www.w3.org/2000/svg" viewBox="0 0 1133.6 1030.71"><defs><style>.cls-1{fill:#9b4646;}.cls-2{fill:#dacde0;}.cls-3{fill:#ece6f0;}.cls-4{fill:#f7e3d0;}.cls-5{fill:#fff5ee;}.cls-6{fill:#f7f7f7;}.cls-7{fill:#efefef;}.cls-8{fill:#f4e1d4;}.cls-9{fill:#fcf8f5;}.cls-10{fill:#d4d9e5;}.cls-11{fill:#fff;}</style></defs><title>アセット 1</title><g id="レイヤー_2" data-name="レイヤー 2"><g id="Layer_1" data-name="Layer 1"><path class="cls-1" d="M542.31,122.05a11.59,11.59,0,0,1-11.57-10.55A61.26,61.26,0,0,1,542.31,70c1.77-2.4,3.61-4.53,5.4-6.59A47.14,47.14,0,0,0,554,55c2.48-4.8,2.73-11.35.68-18-3.26-10.52-11.8-14.47-18.82-13.71-7.42.8-12.11,6.37-12.89,15.28a11.63,11.63,0,1,1-23.17-2c1.75-20.1,14.93-34.39,33.58-36.39,19.5-2.1,37.39,10.21,43.51,29.94,3.85,12.4,3,25.36-2.24,35.54a66.53,66.53,0,0,1-9.34,12.86c-1.57,1.81-3,3.5-4.29,5.2a37.71,37.71,0,0,0-7.12,25.57A11.64,11.64,0,0,1,543.4,122C543,122,542.67,122.05,542.31,122.05ZM537.57,18.37c8.51,0,18,5.13,21.79,17.23,2.43,7.84,2.06,15.74-1,21.67-1.65,3.2-4.21,6.15-6.91,9.28-1.74,2-3.52,4.07-5.18,6.32a56.27,56.27,0,0,0-10.63,38.18,6.73,6.73,0,0,0,7.33,6.07,6.64,6.64,0,0,0,4.55-2.4A6.72,6.72,0,0,0,549,109.8a42.61,42.61,0,0,1,8.05-28.93c1.37-1.86,3-3.71,4.52-5.5,3-3.42,6.31-7.29,8.7-11.91,4.69-9.05,5.39-20.66,1.92-31.84C566.8,14.16,551.05,3.26,533.9,5.1,517.69,6.84,506.22,19.38,504.68,37a6.73,6.73,0,1,0,13.41,1.17c1-11.13,7.58-18.69,17.25-19.72A20.55,20.55,0,0,1,537.57,18.37Z"/><path class="cls-1" d="M541.42,162.82h-.29a11.86,11.86,0,0,1-6.2-1.86c-3.13-2-5.22-5.92-5.74-10.77-.56-5.16.86-10.11,3.69-12.93a11.81,11.81,0,0,1,8.49-3.37c8.6.24,15.27,6.72,15.22,14.75a13.56,13.56,0,0,1-4.39,9.6A15.86,15.86,0,0,1,541.42,162.82Zm-.18-4.89a10.89,10.89,0,0,0,7.55-3.2,9,9,0,0,0,2.88-5.56h0c0-.18,0-.37,0-.55,0-5.34-4.55-9.66-10.43-9.82a6.73,6.73,0,0,0-4.93,2c-1.78,1.76-2.67,5.27-2.28,8.93.35,3.26,1.7,6,3.51,7.16a7,7,0,0,0,3.68,1.1Z"/><path class="cls-2" d="M745.4,945.94l-.7.87a8.11,8.11,0,0,1-2-4.25l-.31.05a36.69,36.69,0,0,1-2.28-18.37,66.17,66.17,0,0,1,5.08-17.93l-.21-.19c.26-.3.53-.6.82-.88l2.8.44,92.82,71.73.15-.14a5.85,5.85,0,0,0,3.93,1.42l-.08,1.12c-.39,0-.86.59-1,1.1a76,76,0,0,0-.46,35.29c.26,1.17,1,2.62,2.07,2.62l1.8,1.08,276.74-33.51a8.31,8.31,0,0,1,0-.87l5.06,2a2.48,2.48,0,0,1,.93.63l.36-.24c2.31,3.12-4.41,5.58-7.56,5.9-4.18.4-8.05,1.61-12.21,2-8.21.82-17.56,2.16-25.73,3.21-32.45,3.85-61.89,8.49-94.33,12.33-32.07,3.8-65.5,7.45-97.56,11.25-14.49,1.72-28.91,4.18-43.41,5.9v.21a53.8,53.8,0,0,1-5.68,0l0-.68c-5.73,0-15.13-10-19-12.94-14.39-10.9-25.93-25-39.93-36.41Q765.46,962.35,745.4,945.94Z"/><path class="cls-3" d="M1086.08,943.06q-.9-11-1.32-22.07l1.54-.07a13.92,13.92,0,0,0,4.76,2.49l.07-.14L1124.41,939l1.33.43c.53.57,1.08,1.14,1.62,1.7l-.1.09c2,2.2-.58,2.37-2.31,2.68l-.47.08-35.22,4.41,0-.15H1086l-.61,0a17.64,17.64,0,0,0,.15-5.08Z"/><path class="cls-4" d="M845.4,979.81l.08-1.12a17.76,17.76,0,0,0,2.19,0l7.67-.35v.06l156-20.26,8.65-1.93v-.1l62.42-4.79.72.5a5.6,5.6,0,0,0,2.23-3.63l.61,0h3.27l0,.15,35.22-4.41.47-.08v9.44h-.18q.6,14.19,0,28.39l.5,0a16.16,16.16,0,0,0-.7,3.78,8.31,8.31,0,0,0,0,.87L847.82,1019.9l-1.8-1.08c-1.07,0-1.81-1.45-2.07-2.62a76,76,0,0,1,.46-35.29C844.54,980.4,845,979.81,845.4,979.81Z"/><path class="cls-4" d="M839.69,960c.35-10.69,1.41-21.74,1.83-32.46h.13l1.29-5.32c.12-.5.24-1,.35-1.53l1,.19c25-.47,45.71-.56,70.71-1.39l.62-1.36,2.82,1.29.44-1a13.58,13.58,0,0,0,2.78,1.18,14.33,14.33,0,0,0,6.94.36l.2.9c5.91-1.07,12.61-2.41,19.23-3.76l7.48-.25,0,.74q14.22-.71,28.41-1.65c33-2.23,65.87-5.61,98.76-9l.78.07c.1.26.2.52.29.79a19.64,19.64,0,0,1,1,3.88l-.22,0q.09,4.65.26,9.28.42,11.06,1.32,22.07l-.58,0a17.64,17.64,0,0,1-.15,5.08,5.6,5.6,0,0,1-2.23,3.63l-.72-.5L1020,956.1l-80.06,6.14c-7.85.61-15.71,1.21-23.56,1.69-22.8,1.43-50.09,4.18-73.08,3.79h0a5.73,5.73,0,0,1-3.28-2.44l-.12-.18a5.72,5.72,0,0,1-.18-5.13Z"/><path class="cls-5" d="M1077.66,893.35q3.28,5.08,6.93,9.91l.09,0a9.66,9.66,0,0,1,.44,1.07,3.13,3.13,0,0,1-1.35,3.51c-.09-.27-.19-.53-.29-.79l-.78-.07c-32.89,3.38-65.78,6.76-98.76,9q-14.21,1-28.41,1.65l0-.74-7.48.25c9-1.83,17.82-3.7,24.42-5,9.32-1.83,18.71-3.23,28-5,22.76-4.4,45-11.15,67.17-17.95l-.15-.51a5.78,5.78,0,0,1,1.14-.63,6.59,6.59,0,0,1,5.59.17A6.67,6.67,0,0,1,1077.66,893.35Z"/><path class="cls-4" d="M1068.59,859.48a2.08,2.08,0,0,0,0,1.61q.09,10.57.17,21.12h-.35c.06,1.91.11,3.83.19,5.75a5.78,5.78,0,0,0-1.14.63l.15.51c-22.16,6.8-44.41,13.55-67.17,17.95-9.31,1.79-18.7,3.19-28,5-6.6,1.31-15.45,3.18-24.42,5-6.62,1.35-13.32,2.69-19.23,3.76l-.2-.9a14.33,14.33,0,0,1-6.94-.36c-.8-7.11-2.61-25.94-1.14-32.22l.17-1h.14c47-10.47,97.61-21.57,144.63-31.88l.44-.58a3.82,3.82,0,0,1,3,4.45C1068.84,858.69,1068.7,859.09,1068.59,859.48Z"/><path class="cls-6" d="M809.18,840.56l0-.17c34-8.57,79.53-16.2,114.66-20.42,0-.17,0-.33,0-.5,2.31-.2,4.61-.3,6.92-.3v.18l126.44,31.85,0,.11a24.43,24.43,0,0,0,7.66,1.78l1.06.77-.44.58c-47,10.31-97.66,21.41-144.63,31.88h-.14L806.4,843.44l.84-2.27A13.61,13.61,0,0,1,809.18,840.56Z"/><path class="cls-3" d="M749.56,902.6c.72-.6,2.88-1.73,9.34-2,2.79-.12,25.27-2.39,55-5.49l3.09-.22a89.83,89.83,0,0,0,3,16.2c1.29,5,2.57,10,3.94,15a353.75,353.75,0,0,0,12.55,36.66l.37-.14a8.34,8.34,0,0,0,3.11,2.73,5.73,5.73,0,0,0,3.28,2.44h0c23,.39,50.28-2.36,73.08-3.79,7.85-.48,15.71-1.08,23.56-1.69L1020,956.1v.1l-8.65,1.93-156,20.26v-.06l-7.67.35a17.76,17.76,0,0,1-2.19,0,5.85,5.85,0,0,1-3.93-1.42l-.15.14-92.82-71.73-2.8-.44a14.24,14.24,0,0,1,3.77-2.62Z"/><path class="cls-7" d="M806.4,843.44l114.27,42.88-.17,1c-1.47,6.28.34,25.11,1.14,32.22a13.58,13.58,0,0,1-2.78-1.18l-.44,1-2.82-1.29-85.31-38.81-8.8-4-15-6.85a27.2,27.2,0,0,1-3.93-5.18l.36-.22a42.57,42.57,0,0,1-2.38-16.93,16,16,0,0,1,6.74-4.93Z"/><path class="cls-5" d="M831,883.26a10,10,0,0,1-.78-3.91l0-.07,85.31,38.81-.62,1.36c-25,.83-45.7.92-70.71,1.39l-1-.19c.43-2.23.54-4.56-.84-6.27l0,0c-3.48-9.29-8.41-21.91-11.79-31Z"/><path class="cls-8" d="M842.41,914.4l0,0c1.38,1.71,1.27,4,.84,6.27-.11.51-.23,1-.35,1.53l-1.29,5.32h-.13c-.42,10.72-1.48,21.77-1.83,32.46h0a5.72,5.72,0,0,0,.18,5.13l.12.18a8.34,8.34,0,0,1-3.11-2.73l-.37.14A353.75,353.75,0,0,1,824,926c-1.37-5-2.65-10-3.94-15a89.83,89.83,0,0,1-3-16.2,30.71,30.71,0,0,1,1.69-13.17l-.46-.18a6.88,6.88,0,0,1,2.89-5.35l.4-.89,8.8,4,0,.07a10,10,0,0,0,.78,3.91l-.41.18C834,892.49,838.93,905.11,842.41,914.4Z"/><path class="cls-3" d="M750.61,785.28l.38,0a115.65,115.65,0,0,1-.33,17.16c-17.74-3.24-31.48-5.73-37.81-6.76l-.24.83-6.52-1.86-1.49-.31c2.93-13.93,7.63-30.49,9.46-43.34,5.67-39.9,8.88-115.14,12-155.38l.79-.08c.57,4.86,1.06,8.87,1.48,11.26,6.69,37.83,16.15,68.6,17.62,107C746.34,725.49,749.94,770.8,750.61,785.28Z"/><path class="cls-9" d="M655.76,835.91l0,.19a8.41,8.41,0,0,1-7-2.31l.08-.52c-33.91-5.09-66.72-17-100.93-19.47a56.61,56.61,0,0,0-12.14.16h0c-.4,0-.78.12-1.16.19h-.43a29.63,29.63,0,0,0-8.45,1.59l-3.85,1.13.14.5-4.51,1.3-.29-1a129.18,129.18,0,0,0-24.13,2.09l-.12-.71-5.56-1.48.05-.35q-16.87-2.62-33.73-5.44c-8.68-1.44-17.63-3-25-7.8l.12-.28a9.1,9.1,0,0,1-4-2.88,8.9,8.9,0,0,1-1.26-6.37,6.75,6.75,0,0,0,1.23-2.47,7.56,7.56,0,0,0-1.1-5.82,43.73,43.73,0,0,1,5.29-14.48,49.48,49.48,0,0,1,21.72-24.08c.21,0,.44,0,.66,0a33.84,33.84,0,0,1,6.51.76l-.05.38a64.68,64.68,0,0,1,11,2.43,18,18,0,0,0,3,.78,17.36,17.36,0,0,0,4.82-.24,115.34,115.34,0,0,1,59.53,7.88l.28-.66q4,1.61,8.15,2.93l.14.77,41-7.64c8.43-1.57,17-3.13,25.55-4.19l-.06-.48c-.16,0-.38-.31-.37-.55a33.1,33.1,0,0,1,.31-3.73l-.51-.07c-.68-20.37-1.19-41.53,5-60.71l-.05,0a11.87,11.87,0,0,1-3.1-8.66h-.09a298.72,298.72,0,0,1-1.43-99.65c.71-4.56,1.72-9.48,5-12.68l6-14.44-.17-.07c11.66-24.12,43.85-40.63,69.11-33.8l2.61,1.1,1.43.61c7.7,3,13.56,10,17.23,17.92l-.38-2.3a26.72,26.72,0,0,1,6.73,14.45c.11.81.19,1.65.38,2.45h0a5.75,5.75,0,0,0,.49,1.39c3.65,11,5.92,30.69,7.5,44l-.79.08c-3.07,40.24-6.28,115.48-12,155.38-1.83,12.85-6.53,29.41-9.46,43.34-.52,2.49-1,4.9-1.37,7.18-1.44,8.57-3.18,17.66-8.82,23.91L687.87,831c-3.08,3.61-8.72,5.23-15.32,5.73v.15c-4,.46-8.1.76-12.16.87a13.94,13.94,0,0,0-4.3-1.76Z"/><path class="cls-3" d="M630.18,473.48l-1.48-2c-1.89-3.79-3.62-7.67-5.17-11.61a20.84,20.84,0,0,1,4.38-1.71l.2.71c12,.45,22.77,7.75,32.85,14.82,19.58,13.76,40.2,28.8,49.45,51.91l1.29,7.66.38,2.3c-3.67-7.87-9.53-14.93-17.23-17.92l-1.43-.61-2.61-1.1c-25.26-6.83-57.45,9.68-69.11,33.8l.17.07-6,14.44c-3.25,3.2-4.26,8.12-5,12.68a298.72,298.72,0,0,0,1.43,99.65h.09a11.87,11.87,0,0,0,3.1,8.66l.05,0c-6.19,19.18-5.68,40.34-5,60.71l.51.07a33.1,33.1,0,0,0-.31,3.73c0,.24.21.55.37.55l.06.48c-8.57,1.06-17.12,2.62-25.55,4.19l-41,7.64-.14-.77q-4.14-1.32-8.15-2.93l-.28.66a115.34,115.34,0,0,0-59.53-7.88,17.36,17.36,0,0,1-4.82.24,18,18,0,0,1-3-.78,64.68,64.68,0,0,0-11-2.43l.05-.38a33.84,33.84,0,0,0-6.51-.76v-.25a6.19,6.19,0,0,0-4.27-3.48l.17-.79c-.58-.12-1.17-.23-1.75-.32l0-.25a32.87,32.87,0,0,1-1.49-7l.11,0c-1.17-5.84-2.11-11.72-2.94-17.63-.7-4.82-1.32-9.67-1.95-14.5-4.85-37.6-9.72-75.66-5.91-113.4.9-9,2.3-17.9,2.38-26.92.1-9.28-1.18-18.49-2.46-27.66l.56-.26c-.84-1.8-1.68-3.59-2.5-5.38l-.37.09c-2.7-11.37-1.19-24.43-3.82-35.76-.93-4-2.19-6.81-2.27-9.64a9.92,9.92,0,0,1,1.57-5.51c2.26-3.82,4.24-4.76,8.14-4.85l1.5-.9A34.4,34.4,0,0,0,448.46,479c7.26,1.95,14.89,2.56,21.89,5.31,10.51,4.15,18.35,12.65,23.91,22.68-1.87,1-3.73,2-5.62,3-.45.24-.92.87-.66,1.18l-6.12,6.31c-5.93,6.12-11.9,12.31-16.43,19.53s-7.57,15.66-7,24.16c4.61-.55,8.24-4,11.85-7a68.12,68.12,0,0,1,13-8.31,96.66,96.66,0,0,0,10.47,17.87c1.72,2.3,3.67,4.64,6.38,5.63,3.59,1.32,7.57-.05,11.07-1.6a104.89,104.89,0,0,0,23.2-14.09l.39-1.34.72.33a53.66,53.66,0,0,1,26.17,26.16c5.39-4.47,6-12.31,8.6-18.81,4.13-10.38,13.59-17.85,18.33-27.92l.07,0q3-6.2,5.92-12.38l1.15.55q9.46-14.67,18.93-29.31c3.1-4.8,6.23-9.65,10.38-13.57A30.08,30.08,0,0,1,630.18,473.48Z"/><path class="cls-10" d="M364.47,872.31c-11.41,6.09-19.13,9.14-32.08,9.82s-35-4-47.93-5.53c-19.63-2.36-42.41-4.56-61.86-8.08,0,0,.3-3.4,5.85-4.63l.09.19a21.59,21.59,0,0,1,4.22-1.68c2.28-.62,4.66-.89,6.93-1.55l.05.17a1.93,1.93,0,0,0,.35,2.57l-.15,1.23c25.34,3.08,47.1,5.43,72.47,8.51A205.12,205.12,0,0,0,334,875.18c3.94.05,7.16-1.23,10.93-2.39a66.13,66.13,0,0,0,9.44-4c4.15-2,8.64-2.67,13.05-4.1,1.77-.58,4-1,5.26.34l1.46,1.3a5.19,5.19,0,0,0-1.16,3.06h-.12c-1.61,5.53,3.8,10.6,9.1,12.88,12.13,5.25,25.95,4.12,39,6.48,6.85,1.24,13.48,3.45,20.21,5.19,8.4,2.18,17,3.63,25.51,5.06l63,10.63a11.91,11.91,0,0,0,6,.46,11.7,11.7,0,0,0,4-1.4l.24.7,38.32-13.22c33-11.39,66.18-22.85,97.06-39.18l.23-.89h0l6.82,1.74-.05.35a13.7,13.7,0,0,1,7.31,3.46,1311.35,1311.35,0,0,1-145,53.33l-4.79,2.52a11.05,11.05,0,0,1-3.14,1.26,11.17,11.17,0,0,1-4-.25l0-.41c-49.49-3.68-96.8-22.45-146.17-27.54-5.9-.61-12.13-1.12-17-4.49C365.05,883.1,362.4,876.94,364.47,872.31Z"/><path class="cls-4" d="M660.4,837.74c.39.25.78.52,1.15.81l-.3.37c5.67,5.42,9.07,6.32,13.2,12.41l.38-.26a7.46,7.46,0,0,0,1,1.25,3.34,3.34,0,0,1,1.12,2.21,1.38,1.38,0,0,1-1.49,1.35l-.06.24h0l-.23.89c-30.88,16.33-64,27.79-97.06,39.18L539.76,909.4l-.24-.7a11.7,11.7,0,0,1-4,1.4l-.61-2.17a51.53,51.53,0,0,1-9.7-17.48l.42-.2a21.19,21.19,0,0,1-1.9-6l8.07-1.89.32,1.12a704,704,0,0,0,123.91-47.28l0-.19A13.94,13.94,0,0,1,660.4,837.74Z"/><path class="cls-5" d="M523.76,884.22c-.34.08-.69.17-1,.24-28.91.38-56-12.94-83.83-20.69-6.41-1.77-12.91-3.26-19.45-4.46-7.53-1.37-15.21-2.36-22.84-1.74A42,42,0,0,0,378,863.32l-.06-.08c3.51-3.23,8-5.07,12.5-6.77q8.76-3.33,17.69-6.22c8.06-2.6,16.21-4.93,24.35-7.26q42.5-12.13,85-24.31l4.51-1.3-.14-.5,3.85-1.13a29.63,29.63,0,0,1,8.45-1.59h.43a2.75,2.75,0,0,0,1.16-.19h0a56.61,56.61,0,0,1,12.14-.16c34.21,2.46,67,14.38,100.93,19.47l-.08.52a8.41,8.41,0,0,0,7,2.31l0-.19.34.07,0,.19a704,704,0,0,1-123.91,47.28l-.32-1.12Z"/><path class="cls-4" d="M641.69,338.93A25.67,25.67,0,0,1,649,350c1.89,5.38,2.39,11.15,2.65,16.84.31,6.74.31,13.56-1.26,20.13-5.52,23.17-28.69,37.82-39,59.19-.33.68-.63,1.35-.94,2.05a20.13,20.13,0,0,1-15.5.56,11,11,0,0,1-6.74-4.59,27.13,27.13,0,0,1-5.5-12.47,1.44,1.44,0,0,1,.2-1l-.34-.25a28.55,28.55,0,0,0,4.4-8.7,37.76,37.76,0,0,0,1.48-10.36c0-3.55-.32-7.21-2-10.31A13.32,13.32,0,0,0,575,394.31a13.11,13.11,0,0,0-7.48,2.38l-.56-.76c-6,2.75-13.22,1.82-19.86.81a40.46,40.46,0,0,1-4.88-1,27,27,0,0,1-9.71,3.34,6.46,6.46,0,0,1-3.41.38,3.39,3.39,0,0,1-2.8-3,5.13,5.13,0,0,1,.34-1.67q1.53-4.81,3.07-9.64a23.1,23.1,0,0,0,2.64-19.33c-2.14-6.64-7.19-11.9-10.33-18.12a34.36,34.36,0,0,1-3-21.51,66.17,66.17,0,0,1-2.25-21.56c0-.38,0-.75.06-1.13-.23-.08-.48-.14-.72-.21a16.16,16.16,0,0,1-4.33-1.47,13.31,13.31,0,0,1-3.54-3.63c-2.48-3.33-5.05-6.88-6-10.87a13.38,13.38,0,0,1-.33-2l.52-.18A24,24,0,0,1,515,254.39l-.13-.64a40.39,40.39,0,0,1,5.79-.84,3.46,3.46,0,0,1,1.57.13,3,3,0,0,1,1.08.81,20.21,20.21,0,0,1,3.05,5.22c-.12,3,1.85,6,4.42,7.69,3,1.95,6.53,2.6,10,3.21l12.72,1.25c21-.18,29.61,2.88,45.68,11.31s34.64,24.37,35.35,43.33l.74,0c.74,3,3.41,5,4.86,7.69A15.49,15.49,0,0,1,641.69,338.93Z"/><path class="cls-9" d="M623.53,459.86c1.55,3.94,3.28,7.82,5.17,11.61l1.48,2a30.08,30.08,0,0,0-5.12,3.92c-4.15,3.92-7.28,8.77-10.38,13.57q-9.45,14.64-18.93,29.31l-1.15-.55q-3,6.19-5.92,12.38l-.07,0c-4.74,10.07-14.2,17.54-18.33,27.92-2.57,6.5-3.21,14.34-8.6,18.81a53.66,53.66,0,0,0-26.17-26.16l-.72-.33-.39,1.34a104.89,104.89,0,0,1-23.2,14.09c-3.5,1.55-7.48,2.92-11.07,1.6-2.71-1-4.66-3.33-6.38-5.63a96.66,96.66,0,0,1-10.47-17.87,68.12,68.12,0,0,0-13,8.31c-3.61,2.94-7.24,6.41-11.85,7-.58-8.5,2.46-16.93,7-24.16s10.5-13.41,16.43-19.53l6.12-6.31c-.26-.31.21-.94.66-1.18,1.89-1,3.75-2,5.62-3A86.45,86.45,0,0,1,501.08,523l.41-.12a39.93,39.93,0,0,1,2.66,7.15l-.8.23a35,35,0,0,0,4.91,14.15l1.13,1.7a83.74,83.74,0,0,1,7.68-3.89,301,301,0,0,0,89.85-64.63c5.81-6.07,11.75-13.85,9.9-22V451a5.51,5.51,0,0,1-.67-.38,4.93,4.93,0,0,1,4,1.95,14.89,14.89,0,0,1,2.27,4.52C622.8,458,623.16,458.93,623.53,459.86Z"/><path class="cls-11" d="M616.15,450.58a5.51,5.51,0,0,0,.67.38v4.65c1.85,8.16-4.09,15.94-9.9,22a301,301,0,0,1-89.85,64.63,83.74,83.74,0,0,0-7.68,3.89l-1.13-1.7a35,35,0,0,1-4.91-14.15l.8-.23a39.93,39.93,0,0,0-2.66-7.15l-.41.12A86.45,86.45,0,0,0,494.26,507c-5.56-10-13.4-18.53-23.91-22.68-7-2.75-14.63-3.36-21.89-5.31a34.4,34.4,0,0,1-12.41-5.84,19.39,19.39,0,0,1-5.52-6.64c-3.58-7.34-1.38-16.08,2.43-23.44a15.9,15.9,0,0,1,5.2-12h1.66c1.42.18,3,.3,4.12-.63,1.48-1.25,1.15-3.62.38-5.41a6.34,6.34,0,0,0-1.64-2.48,2.73,2.73,0,0,0-2.8-.51l-.19,1c-1.37-.33-1.74-2.27-1.74-3.75,0-7.52-.25-15-.7-22.54-.19-2.92-.43-6-1.92-8.47l.81-.25a9.53,9.53,0,0,1,1-13.68c1.82-1.4,4.06-2,6.14-3a25.19,25.19,0,0,0,14.22-18.1c0-.19.06-.37.1-.57A93.13,93.13,0,0,1,460.74,341c.54-1.71,1.12-3.47,1.79-5.16l-.73-.05c.88-5.09,4-9.5,7.25-13.53,3.91-4.85,15.58-17,21.23-22.41a66.39,66.39,0,0,1,11.31-12.25l.67-.18c.93,4,3.5,7.54,6,10.87a13.31,13.31,0,0,0,3.54,3.63,16.16,16.16,0,0,0,4.33,1.47c.2.46.42.9.66,1.34A66.17,66.17,0,0,0,519,326.24a34.36,34.36,0,0,0,3,21.51c3.14,6.22,8.19,11.48,10.33,18.12a23.1,23.1,0,0,1-2.64,19.33q-1.55,4.82-3.07,9.64a5.13,5.13,0,0,0-.34,1.67,3.39,3.39,0,0,0,2.8,3,6.46,6.46,0,0,0,3.41-.38,27,27,0,0,0,9.71-3.34,40.46,40.46,0,0,0,4.88,1c6.64,1,13.82,1.94,19.86-.81l.56.76a13.11,13.11,0,0,1,7.48-2.38,13.32,13.32,0,0,1,11.43,6.81c1.7,3.1,2.06,6.76,2,10.31A37.76,37.76,0,0,1,587,421.79a28.55,28.55,0,0,1-4.4,8.7l.34.25a1.44,1.44,0,0,0-.2,1,27.13,27.13,0,0,0,5.5,12.47,11,11,0,0,0,6.74,4.59,20.13,20.13,0,0,0,15.5-.56,16.53,16.53,0,0,0,1.81-1A15.2,15.2,0,0,0,616.15,450.58Zm-143.4-75.05c4.4,1.17,5-10.72.62-5.24a9.92,9.92,0,0,0-1.74,2.93A1.92,1.92,0,0,0,472.75,375.53Z"/><path class="cls-5" d="M373,869.39a5.19,5.19,0,0,1,1.16-3.06,11.34,11.34,0,0,1,1.05-1.23l.11.11a30,30,0,0,1,2.72-1.89,42,42,0,0,1,18.61-5.75c7.63-.62,15.31.37,22.84,1.74,6.54,1.2,13,2.69,19.45,4.46,27.85,7.75,54.92,21.07,83.83,20.69.35-.07.7-.16,1-.24a21.19,21.19,0,0,0,1.9,6l-.42.2a51.53,51.53,0,0,0,9.7,17.48l.61,2.17a11.91,11.91,0,0,1-6-.46l-63-10.63c-8.55-1.43-17.11-2.88-25.51-5.06-6.73-1.74-13.36-4-20.21-5.19-13-2.36-26.83-1.23-39-6.48-5.3-2.28-10.71-7.35-9.1-12.88Z"/><path class="cls-5" d="M240.62,860.55l0-.07c.39-1.9,2.57-2.74,4.43-3.26,35.24-9.88,69.09-12.44,104.33-22.32a64.09,64.09,0,0,1,12.28-2.6,69.6,69.6,0,0,1,12.73.62c16.57,1.7,34.6.72,51.14-.62,16.77-1.35,29.56-4.6,46-8.24,5.54-1.23,11.72-2.58,18.06-3.73l3.49-.61a129.18,129.18,0,0,1,24.13-2.09l.29,1Q475,830.83,432.47,843c-8.14,2.33-16.29,4.66-24.35,7.26q-8.92,2.89-17.69,6.22c-4.47,1.7-9,3.54-12.5,6.77l.06.08a30,30,0,0,0-2.72,1.89l-.11-.11a11.34,11.34,0,0,0-1.05,1.23l-1.46-1.3c-1.27-1.36-3.49-.92-5.26-.34-4.41,1.43-8.9,2-13.05,4.1a66.13,66.13,0,0,1-9.44,4c-3.77,1.16-7,2.44-10.93,2.39a205.12,205.12,0,0,1-21.56-1.85c-25.37-3.08-47.13-5.43-72.47-8.51l.15-1.23a1.93,1.93,0,0,1-.35-2.57l-.05-.17A7.74,7.74,0,0,0,240.62,860.55Z"/><path class="cls-11" d="M400.42,761.1a2.58,2.58,0,0,0,2.76-1.27l3-4.78c.12-.72.2-1.43.28-2.16l.51.05a.69.69,0,0,1,.5-.3,23.2,23.2,0,0,0,5.85-2.35l-.15-.27a68.74,68.74,0,0,0,7.55-5.55l.77.94c1.6,0,3.19,0,4.79,0a33.91,33.91,0,0,1,19.16-2.71c.58.09,1.17.2,1.75.32l-.17.79a6.19,6.19,0,0,1,4.27,3.48v.25c-.22,0-.45,0-.66,0a49.48,49.48,0,0,0-21.72,24.08,43.73,43.73,0,0,0-5.29,14.48,16.85,16.85,0,0,0-3.53-4.13,37.42,37.42,0,0,0-13.27-7.47l-1.36.56c-.28-.51-.58-1-.87-1.52-1.93-3.36-3.87-6.71-5.79-10.07l-2.34-.23a7.73,7.73,0,0,0,.15-2.79l.68-.06.75.17A8.06,8.06,0,0,0,400.42,761.1Z"/><path class="cls-9" d="M361.57,680.06l-.16-.09a59,59,0,0,1,9.14-22,50.19,50.19,0,0,1,13-13.29l-.27-.38a19.93,19.93,0,0,1,2.23-9.73H385c6-44.26,15.3-106.5,35.1-145.24l.29.15a12.41,12.41,0,0,1,4.45-5.13h0c.08,2.83,1.34,5.63,2.27,9.64,2.63,11.33,1.12,24.39,3.82,35.76l.37-.09c.82,1.79,1.66,3.58,2.5,5.38l-.56.26c1.28,9.17,2.56,18.38,2.46,27.66-.08,9-1.48,18-2.38,26.92-3.81,37.74,1.06,75.8,5.91,113.4.63,4.83,1.25,9.68,1.95,14.5-.81,1.37-1.6,2.74-2.4,4.11a72.29,72.29,0,0,1-18,22.54,68.74,68.74,0,0,1-7.55,5.55l.15.27a23.2,23.2,0,0,1-5.85,2.35.69.69,0,0,0-.5.3l-.51-.05a24.9,24.9,0,0,0-.8-10,17.05,17.05,0,0,0-3.08-5.74c0-.38,0-.75-.08-1.13v0a17.69,17.69,0,0,0-15.12-15.12l0,.22a49.15,49.15,0,0,0-7,.4c-4.09-7.71-8.54-15.65-13.83-24.62l.16-.19c-.75-.65-1.46-1.34-2.15-2.07a33,33,0,0,1-2.72-3.29l-.2.07a44.74,44.74,0,0,0-2.34-5l.76-.42A9.39,9.39,0,0,1,361.57,680.06Z"/><path class="cls-11" d="M423.64,786.12a7.56,7.56,0,0,1,1.1,5.82,6.75,6.75,0,0,1-1.23,2.47c-1.62,2.09-4.34,3.44-6.84,4.54l-2.14.13c-.41-6.14-2.65-11.91-5.48-17.45-1.12-2.22-2.34-4.4-3.57-6.55l1.36-.56A37.42,37.42,0,0,1,420.11,782,16.85,16.85,0,0,1,423.64,786.12Z"/><path class="cls-5" d="M414.53,799.08c0,.13,0,.26,0,.39l-.05,0c-2-2.21-4.61-3.81-6.93-5.72a40.15,40.15,0,0,1-6.72-7.19l.67-.5a5.93,5.93,0,0,0,7.28-4.27l.24-.12C411.88,787.17,414.12,792.94,414.53,799.08Z"/><path class="cls-11" d="M339.9,744a16.16,16.16,0,0,1,6.14-5.21l.63,1.31a26.8,26.8,0,0,1,3-1.2c.55,4.88,4.08,9.38,7.81,12.85a67.6,67.6,0,0,0,29.12,15.76,17.67,17.67,0,0,0,3.14.56,24.6,24.6,0,0,0,2.68,4.94l.39-.19a94.22,94.22,0,0,0,8.05,13.68,40.15,40.15,0,0,0,6.72,7.19c2.32,1.91,4.91,3.51,6.93,5.72l-.24.24a8.37,8.37,0,0,1-7.58.32l-3.22-1-.57,1.8c-1.23,2.56-4.22,3.74-7,4.36a38.06,38.06,0,0,1-4.23.7c-.05.2-.08.42-.12.63l.17,0c1.22,4.29-3,8.21-7.16,9.88-8.48,3.44-18.31,2.59-26.74-1S342.2,805.78,336.07,799c-3.16-3.52-6.19-7.46-7.07-12.1-.81-4.17.21-8.46,1.21-12.59q1.79-7.39,3.58-14.76C335.09,754.16,336.75,748.35,339.9,744Z"/><path class="cls-3" d="M392.81,772.84l-.39.19a24.6,24.6,0,0,1-2.68-4.94,6.9,6.9,0,0,0,3.64-.61,6.15,6.15,0,0,0,3.1-4.22l2.34.23c1.92,3.36,3.86,6.71,5.79,10.07.29.51.59,1,.87,1.52,1.23,2.15,2.45,4.33,3.57,6.55l-.24.12a5.93,5.93,0,0,1-7.28,4.27l-.67.5A94.22,94.22,0,0,1,392.81,772.84Z"/><path class="cls-11" d="M402.6,737.13a17.05,17.05,0,0,1,3.08,5.74,24.9,24.9,0,0,1,.8,10c-.08.73-.16,1.44-.28,2.16l-3,4.78a2.58,2.58,0,0,1-2.76,1.27l-2.36-.52-.75-.17-.68.06a.62.62,0,0,0,0-.13,11.62,11.62,0,0,0-1.37-3.91l1.64-.83a53,53,0,0,1-3-7.37c-2.1-4.37-4.15-8.56-6.21-12.68l2.34-1.81.21.22c2-1.79,5.43-1.65,7.95-.41a13.13,13.13,0,0,1,2.46,1.6A14.18,14.18,0,0,1,402.6,737.13Z"/><path class="cls-11" d="M402.52,736a15,15,0,0,0-1.88-.84h0a13.13,13.13,0,0,0-2.46-1.6c-2.52-1.24-5.95-1.38-7.95.41l-.21-.22-2.34,1.81c-2.36-4.71-4.73-9.35-7.25-14.07a49.15,49.15,0,0,1,7-.4l0-.22A17.69,17.69,0,0,1,402.52,736Z"/><path class="cls-3" d="M380.42,721.48c2.52,4.72,4.89,9.36,7.25,14.07,2.06,4.12,4.11,8.31,6.21,12.68a53,53,0,0,0,3,7.37l-1.64.83a22.35,22.35,0,0,0-2.44-3.42,37.43,37.43,0,0,0-13.31-10l-.17.24a9.09,9.09,0,0,1-3.7-5.64l.39-.52c-2.91-5-5.5-10.09-8.06-15.28-3.39-6.87-6.76-13.82-10.78-20.51l.06,0-.77-1.15,1.68-1.14a9.57,9.57,0,0,1,4.68-3.08l1.77-1.32c.69.73,1.4,1.42,2.15,2.07l-.16.19C371.88,705.83,376.33,713.77,380.42,721.48Z"/><path class="cls-11" d="M379.33,743.28l.17-.24a37.43,37.43,0,0,1,13.31,10,22.35,22.35,0,0,1,2.44,3.42,11.62,11.62,0,0,1,1.37,3.91.62.62,0,0,1,0,.13,7.73,7.73,0,0,1-.15,2.79,6.15,6.15,0,0,1-3.1,4.22,6.9,6.9,0,0,1-3.64.61,17.67,17.67,0,0,1-3.14-.56,67.6,67.6,0,0,1-29.12-15.76c-3.73-3.47-7.26-8-7.81-12.85a11.11,11.11,0,0,1,.11-3.35c1.29-7,8.78-10.83,15.66-12.47l2.52-1.26c2.56,5.19,5.15,10.32,8.06,15.28l-.39.52A9.09,9.09,0,0,0,379.33,743.28Z"/><path class="cls-9" d="M337.79,735.1l-.39,0c.18-7.46,3.92-14.29,7.58-20.8q2.29-4.1,4.6-8.2l.22.12a34.26,34.26,0,0,1,5.69-7.47l1,1.43.77,1.15-.06,0c4,6.69,7.39,13.64,10.78,20.51l-2.52,1.26c-6.88,1.64-14.37,5.52-15.66,12.47a11.11,11.11,0,0,0-.11,3.35,26.8,26.8,0,0,0-3,1.2l-.63-1.31A16.16,16.16,0,0,0,339.9,744,14.1,14.1,0,0,1,337.79,735.1Z"/><path class="cls-5" d="M361.68,691.38l.2-.07a33,33,0,0,0,2.72,3.29l-1.77,1.32a9.57,9.57,0,0,0-4.68,3.08l-1.68,1.14-1-1.43c-.19-.26-.36-.54-.54-.8a13.42,13.42,0,0,0-2.07-2.56l.86-.41-5.91-12.3c2.53-.3,4.55-3.76,6.87-2.67a3.9,3.9,0,0,1,1.41,1.36,46.63,46.63,0,0,1,3.23,5.1A44.74,44.74,0,0,1,361.68,691.38Z"/><path class="cls-5" d="M116.6,615.83l.13-.13a24,24,0,0,1-1.16-10.43l0-.34c1-12,9.77-23.2,19.16-31.91l.69.75a10.3,10.3,0,0,0,6.45,3.91l.3-.52a20.43,20.43,0,0,0,30.36-21.46l.23,0c-.26-1.23-.52-2.46-.79-3.69l-2.69-1.09c2.06-.86,4.16-1.66,6.28-2.41,9.74-3.45,22.88-8.23,33.26-4.75l-.1.26a28.2,28.2,0,0,0,6.13,3.09,23.33,23.33,0,0,1,3.83,1.57c.19.11.38.24.56.37a5.49,5.49,0,0,1,1,1c3.47,17.29-7.67,32.71-20.15,43.63-17,14.92-40.35,30.06-63.78,30.52-6.06.12-20.59-2.26-21.44-10.24A22.87,22.87,0,0,0,116.6,615.83Z"/><path class="cls-6" d="M123.45,498.73a49.36,49.36,0,0,1,14.81-3.42,6.17,6.17,0,0,0,1.63,1.15v.2C149,496.34,158,499,166.14,503c9,4.46,17,10.59,24.88,16.73,8.43,6.54,16.86,13.21,23.81,21.3a34.67,34.67,0,0,1,3.81,7.57,23.33,23.33,0,0,0-3.83-1.57,28.2,28.2,0,0,1-6.13-3.09l.1-.26c-10.38-3.48-23.52,1.3-33.26,4.75-2.12.75-4.22,1.55-6.28,2.41a115.35,115.35,0,0,0-25.3,14.41c-3,2.27-6.15,4.86-9.25,7.73-9.39,8.71-18.19,20-19.16,31.91l0,.34a24,24,0,0,0,1.16,10.43l-.13.13a22.87,22.87,0,0,1-1.75-1.94,25.24,25.24,0,0,1-4.46-8l.37-.17c-5.28-12.19-10.47-24.45-13.84-37.29s-4.82-26.18-2.63-39.15h-.06a8.07,8.07,0,0,1-.07-1.7,6,6,0,0,0-.31-1.78,24.66,24.66,0,0,1,5-9.93l.35.2a38.16,38.16,0,0,1,24.21-17.53Z"/><path class="cls-5" d="M142.13,577.16l-.3.52a10.3,10.3,0,0,1-6.45-3.91l-.69-.75c3.1-2.87,6.27-5.46,9.25-7.73a115.35,115.35,0,0,1,25.3-14.41l2.69,1.09c.27,1.23.53,2.46.79,3.69l-.23,0a20.43,20.43,0,0,1-30.36,21.46Z"/><path class="cls-6" d="M85.52,490A33.37,33.37,0,0,1,98.1,477.72a35.75,35.75,0,0,1,12.54-4.11,38.91,38.91,0,0,1,9.94-.07l2.53-.37,4.67,5.68-.94,1a61.63,61.63,0,0,1,8.85,12.64l.84-.16a6.45,6.45,0,0,0,1.73,3,49.36,49.36,0,0,0-14.81,3.42l-.09-.23A38.16,38.16,0,0,0,99.15,516l-.35-.2a24.66,24.66,0,0,0-5,9.93A14.69,14.69,0,0,0,90.9,521c-.31-.73-.64-1.45-1-2.18q-2.26-5-4.73-10c-1.28-2.58-2.61-5.12-4-7.65l.42-.23a10.39,10.39,0,0,1,1.22-4.49l-.2-.11A30.17,30.17,0,0,1,85.52,490Z"/><path class="cls-6" d="M14,810.63c4.79,2.43,10.12,3.2,15.32,3.82,25.14,3,50.73,4,75.48-2.29a31.63,31.63,0,0,0,8.3-3.08l.21.35a12,12,0,0,0,6-5.16c0-.13,0-.26,0-.4l.93,0a24.7,24.7,0,0,1,3,5.18c.14,2.95-1,4.23-2.71,5.69a22.23,22.23,0,0,1-11.6,5.18C67.24,832,6.83,817.4,6.83,817.4c-1.93-1.31-4-2.92-4.54-5.58a10,10,0,0,1,.6-4.92h.43a14.84,14.84,0,0,1,3.3-4.06l.16,2,1-.08a17.85,17.85,0,0,0,6.35,5.77Z"/><path class="cls-6" d="M6.62,802.85a36.14,36.14,0,0,1,.21-9.24,6.85,6.85,0,0,1,.16-.76c2.32.66,4.33,3.25,6.84,3l0-.08c3.84,2,8.1,2.84,12.28,3.49a236.79,236.79,0,0,0,82-1.55,14.24,14.24,0,0,0,5.4-1.93l.64.81c1.2-1,2.39-1.93,3.59-2.88l.89-.21c.08.27.14.53.2.8a37.65,37.65,0,0,1,.43,9.56c0,.14,0,.27,0,.4a12,12,0,0,1-6,5.16l-.21-.35a31.63,31.63,0,0,1-8.3,3.08c-24.75,6.3-50.34,5.3-75.48,2.29-5.2-.62-10.53-1.39-15.32-3.82l0-.06a17.85,17.85,0,0,1-6.35-5.77l-1,.08Z"/><path class="cls-6" d="M47.23,777.3c21.87-2,44.5,1.19,61.52,5.62l-.13.49a19.18,19.18,0,0,1,6.62,3.08,17.8,17.8,0,0,1,3.47,7l-.89.21c-1.2.95-2.39,1.92-3.59,2.88l-.64-.81a14.24,14.24,0,0,1-5.4,1.93,236.79,236.79,0,0,1-82,1.55c-4.18-.65-8.44-1.45-12.28-3.49l0,.08c-2.51.24-4.52-2.35-6.84-3,.66-3,2.09-5.72,4.17-7.24l-.08-.1A30.38,30.38,0,0,1,27.14,780l.16.65q4.39-1.16,8.93-1.94C39.86,778.09,43.54,777.63,47.23,777.3Z"/><path class="cls-6" d="M84.44,488.63l-.14.06c-.83-1.75-1.59-3.55-2.29-5.35a19.77,19.77,0,0,1-1.53-6.08c-.24-5.43,3.63-10.27,8.16-13.28,3.43-2.28,7.78-3.84,11.62-2.38,4.06,1.56,6.2,5.88,9.34,8.9l-.7.59c.57.84,1.16,1.68,1.74,2.52a35.75,35.75,0,0,0-12.54,4.11A33.37,33.37,0,0,0,85.52,490,3,3,0,0,1,84.44,488.63Z"/><path class="cls-6" d="M82.13,512a14.79,14.79,0,0,1,3.08-3.09q2.48,4.93,4.73,10l-1.17,1.73-.42-.28c-11.27,12.32-22.11,25.23-30.09,39.89s-13,31.3-12,48h-.17q.23,4.19.47,8.36h-.25V774.59l1.13.11c-.09.87-.17,1.74-.25,2.6-3.69.33-7.37.79-11,1.45l-.2-1.09a21.81,21.81,0,0,1-.62-5.2h0V613l.55,0q-.13-4.62-.13-9.22v0c1-10.92,2.19-22,6.17-32.17,2.72-7,6.72-13.45,10.68-19.85,8.7-14.06,17.58-28.31,29.47-39.74C82.12,512,82.13,512,82.13,512Z"/><path class="cls-1" d="M436.14,390.19a2.13,2.13,0,0,1-1.55-.65,11.69,11.69,0,0,1,1.2-16.93,19.52,19.52,0,0,1,4.94-2.55c.55-.22,1.09-.44,1.63-.68a22.84,22.84,0,0,0,13-16.51,2.18,2.18,0,0,1,4.28.79,27.2,27.2,0,0,1-15.48,19.69c-.59.27-1.18.51-1.78.75a16.51,16.51,0,0,0-3.92,2,7.39,7.39,0,0,0-.74,10.43,2.18,2.18,0,0,1,0,3.08A2.13,2.13,0,0,1,436.14,390.19Z"/><path class="cls-1" d="M457.57,354.88l-.3,0a2.19,2.19,0,0,1-1.86-2.46l.1-.71a2.17,2.17,0,1,1,4.31.58l-.09.72A2.18,2.18,0,0,1,457.57,354.88Z"/><path class="cls-1" d="M473.37,377.8a4.92,4.92,0,0,1-1.18-.16,4.08,4.08,0,0,1-2.68-4.92,12.4,12.4,0,0,1,2.16-3.79h0c2.33-2.9,4.23-2.4,5.16-1.85,2.24,1.34,1.94,5.05,1,7.26S475.26,377.8,473.37,377.8Z"/><path class="cls-1" d="M489,350.23a2.18,2.18,0,0,1-2.16-1.87c-.49-3.46-4.63-5.63-8.34-5.73a2.18,2.18,0,0,1,.12-4.35c5.44.15,11.68,3.51,12.53,9.46a2.17,2.17,0,0,1-1.84,2.47Z"/><path class="cls-1" d="M461.81,337.92a2.43,2.43,0,0,1-.38,0,2.18,2.18,0,0,1-1.77-2.52c1-5.59,4.27-10.28,7.7-14.52,4.06-5.05,15.78-17.2,21.41-22.61.47-.47.91-.89,1.31-1.25A2.18,2.18,0,0,1,493,300.2c-.37.34-.77.72-1.22,1.16-5.58,5.37-17.22,17.45-21.05,22.22-3.06,3.79-6,7.92-6.8,12.53A2.18,2.18,0,0,1,461.81,337.92Z"/><path class="cls-1" d="M528.13,389.51a2.18,2.18,0,0,1-1.67-3.58,19.28,19.28,0,0,0,1.41-1.91,21,21,0,0,0,2.4-17.49c-1.19-3.68-3.37-6.95-5.68-10.4a68.55,68.55,0,0,1-4.52-7.4,36.47,36.47,0,0,1-3.19-22.88,35.06,35.06,0,0,1,1.89-6.6,2.18,2.18,0,1,1,4.05,1.6,30.64,30.64,0,0,0-1.66,5.79,32,32,0,0,0,2.8,20.13,65,65,0,0,0,4.25,6.94c2.37,3.55,4.83,7.22,6.2,11.49a25.12,25.12,0,0,1-2.89,21.19,24.79,24.79,0,0,1-1.72,2.34A2.19,2.19,0,0,1,528.13,389.51Z"/><path class="cls-1" d="M557.83,445.53c-.38,0-.75,0-1.13,0-5.92-.22-10.24-2.61-11.85-6.54a2.17,2.17,0,1,1,4-1.65c1.37,3.33,6.47,3.79,8,3.84,9,.36,18.36-4.35,23.93-11.95a26,26,0,0,0,4.07-8,35.42,35.42,0,0,0,1.39-9.76c0-2.54-.12-6.26-1.75-9.23a11.18,11.18,0,0,0-9.52-5.69,11.23,11.23,0,0,0-9.56,5.6,2.18,2.18,0,0,1-3.81-2.11,15.09,15.09,0,0,1,4.65-5.07,15.39,15.39,0,0,1,8.68-2.77h0a15.41,15.41,0,0,1,13.33,7.95c2.12,3.87,2.32,8.35,2.28,11.37a39.89,39.89,0,0,1-1.57,11,30.26,30.26,0,0,1-4.73,9.36A33.4,33.4,0,0,1,557.83,445.53Z"/><path class="cls-1" d="M558,422.69a2.17,2.17,0,0,1-.65-4.25,36.72,36.72,0,0,1,11-1.69h.22a2.18,2.18,0,0,1,0,4.35h-.2a32.31,32.31,0,0,0-9.68,1.49A2.14,2.14,0,0,1,558,422.69Z"/><path class="cls-1" d="M531.17,401.45a2.18,2.18,0,0,1-.2-4.35c.41,0,.81-.07,1.21-.13a25.57,25.57,0,0,0,18.15-12,2.18,2.18,0,0,1,3.75,2.22,29.46,29.46,0,0,1-10.79,10.5,29,29,0,0,1-10.49,3.6c-.44.07-.93.12-1.41.17Z"/><path class="cls-1" d="M610.27,450.83a2.2,2.2,0,0,1-.83-.17,2.17,2.17,0,0,1-1.18-2.84l.17-.41c.34-.76.65-1.46,1-2.16,4.54-9.38,11.48-17.5,18.19-25.35,9.07-10.61,17.64-20.63,20.68-33.4,1.55-6.46,1.49-13.2,1.21-19.52-.25-5.38-.73-11.08-2.54-16.21a23.24,23.24,0,0,0-6.67-10.17,15.37,15.37,0,0,0-2.64-1.86,2.18,2.18,0,0,1,2.14-3.8,20,20,0,0,1,3.33,2.35,27.66,27.66,0,0,1,8,12c2,5.67,2.51,11.74,2.78,17.46.3,6.64.35,13.74-1.32,20.73-3.29,13.79-12.6,24.68-21.61,35.22-6.53,7.64-13.29,15.55-17.58,24.42-.32.65-.61,1.3-.9,2l-.16.36A2.18,2.18,0,0,1,610.27,450.83Z"/><path class="cls-1" d="M596.69,451.19h0a11.7,11.7,0,0,1-2.15-.25,13.18,13.18,0,0,1-8.1-5.49,12.37,12.37,0,0,1-2.17-6.41,2.17,2.17,0,0,1,2.08-2.26,2.19,2.19,0,0,1,2.27,2.09A8,8,0,0,0,590,443a8.79,8.79,0,0,0,5.39,3.68,5.92,5.92,0,0,0,1.34.15,2.18,2.18,0,0,1,0,4.36Z"/><path class="cls-1" d="M501.4,526.27a2.18,2.18,0,0,1-2.08-1.53c-.11-.37-.23-.75-.33-1.12a84.22,84.22,0,0,0-6.63-15.6c-6-10.8-13.67-18.1-22.81-21.71a73.91,73.91,0,0,0-13-3.35c-2.83-.55-5.76-1.12-8.61-1.88a36.49,36.49,0,0,1-13.2-6.24,21.33,21.33,0,0,1-6.12-7.39c-4.29-8.79-1-18.66,2.45-25.4.31-.64.69-1.34,1.14-2.12a2.18,2.18,0,1,1,3.78,2.16c-.36.63-.71,1.27-1,1.93-3,5.88-5.91,14.36-2.42,21.51a17.07,17.07,0,0,0,4.9,5.88A31.89,31.89,0,0,0,449,476.87c2.7.73,5.55,1.28,8.31,1.82a77.2,77.2,0,0,1,13.8,3.57c10.11,4,18.53,11.94,25,23.64a88.39,88.39,0,0,1,7,16.48c.11.39.21.73.32,1.06a2.19,2.19,0,0,1-1.43,2.73A2.5,2.5,0,0,1,501.4,526.27Z"/><path class="cls-1" d="M385,636.79l-.3,0a2.18,2.18,0,0,1-1.86-2.45c7.35-54.3,16.72-109.55,35.32-145.94l.73-1.41a2.17,2.17,0,1,1,3.87,2l-.73,1.41C403.73,526.17,394.45,581,387.14,634.9A2.17,2.17,0,0,1,385,636.79Z"/><path class="cls-1" d="M376,739.29a2.16,2.16,0,0,1-1.88-1.07c-3.06-5.22-5.8-10.7-8.13-15.42l-.83-1.69c-3.06-6.19-6.22-12.59-9.87-18.66a2.18,2.18,0,0,1,3.73-2.24c3.75,6.22,6.95,12.7,10,19l.83,1.69c2.3,4.66,5,10,8,15.14a2.17,2.17,0,0,1-.77,3A2.12,2.12,0,0,1,376,739.29Z"/><path class="cls-1" d="M394.23,751.12a2.18,2.18,0,0,1-2-1.2l-.35-.71c-2.23-4.63-4.25-8.77-6.2-12.69-2.65-5.29-5-9.74-7.23-14-4.16-7.85-8.67-15.87-13.78-24.54a2.18,2.18,0,1,1,3.75-2.21c5.14,8.72,9.68,16.8,13.88,24.71,2.29,4.31,4.6,8.79,7.27,14.11,2,3.94,4,8.1,6.22,12.71l.33.69a2.17,2.17,0,0,1-1,2.92A2.1,2.1,0,0,1,394.23,751.12Z"/><path class="cls-1" d="M414.56,801.65a2.19,2.19,0,0,1-1.51-.61l-.14-.14a30.18,30.18,0,0,0-4.28-3.63c-.8-.6-1.63-1.22-2.43-1.88a41.48,41.48,0,0,1-7.08-7.58,94.66,94.66,0,0,1-8.25-14l-.9-1.77a2.18,2.18,0,1,1,3.89-1.95l.9,1.76a91.8,91.8,0,0,0,7.85,13.36A37.74,37.74,0,0,0,409,792c.74.61,1.51,1.18,2.28,1.76l.32.24a51.4,51.4,0,0,0-4.45-11.41c-1.12-2.22-2.35-4.42-3.52-6.46-.21-.38-.42-.74-.62-1.09l-2.54-4.41q-1.76-3-3.5-6.09a2.18,2.18,0,1,1,3.78-2.16c1.16,2,2.33,4.05,3.49,6.07l2.54,4.41.64,1.13c1.19,2.08,2.45,4.33,3.61,6.63,2.22,4.33,5.22,11,5.72,18.28,0,.06,0,.16,0,.25v.1a2.2,2.2,0,0,1-1.23,2.15A2.09,2.09,0,0,1,414.56,801.65Z"/><path class="cls-1" d="M403.06,788.43a7.1,7.1,0,0,1-2.19-.34,2.18,2.18,0,1,1,1.32-4.15,3.51,3.51,0,0,0,2.78-.42,3.44,3.44,0,0,0,1.71-2.2,2.17,2.17,0,0,1,4.26.86,7.79,7.79,0,0,1-3.76,5.1A8.15,8.15,0,0,1,403.06,788.43Z"/><path class="cls-1" d="M353.77,697.17a2.17,2.17,0,0,1-1.87-1.07,2.53,2.53,0,0,1-.13-.22q-2.55-5.29-5.1-10.63l-.8-1.66a2.15,2.15,0,0,1,.05-2,2.19,2.19,0,0,1,1.65-1.12,5.76,5.76,0,0,0,2-1.12c1.42-1,3.56-2.53,6-1.37a6,6,0,0,1,2.26,2.07,48.72,48.72,0,0,1,3.37,5.33,46,46,0,0,1,2.45,5.18c.19.47.37.95.56,1.43a2.18,2.18,0,0,1-4.08,1.52l-.51-1.32a44.88,44.88,0,0,0-2.23-4.72,48.2,48.2,0,0,0-3.09-4.88,2.46,2.46,0,0,0-.59-.67,5.88,5.88,0,0,0-1.65,1c-.4.28-.84.59-1.32.88l4.87,10.12a.59.59,0,0,0,0,.08,2.18,2.18,0,0,1-1.93,3.18Z"/><path class="cls-1" d="M358.14,701.18a2.18,2.18,0,0,1-1.67-3.57,12,12,0,0,1,5.74-3.78,2.18,2.18,0,0,1,1.23,4.18,7.51,7.51,0,0,0-3.62,2.38A2.17,2.17,0,0,1,358.14,701.18Z"/><path class="cls-1" d="M361.41,682.14a2,2,0,0,1-.41,0,2.19,2.19,0,0,1-1.73-2.55,61.45,61.45,0,0,1,9.48-22.76,52,52,0,0,1,13.59-13.86c.4-.29.84-.57,1.28-.85a2.19,2.19,0,0,1,3,.64,2.16,2.16,0,0,1-.63,3l0,0c-.38.25-.77.49-1.14.76a47.81,47.81,0,0,0-12.48,12.74,57,57,0,0,0-8.8,21.14A2.17,2.17,0,0,1,361.41,682.14Z"/><path class="cls-1" d="M337.4,737.24h0a2.18,2.18,0,0,1-2.13-2.22c.2-8.18,4.44-15.74,7.86-21.82l4.6-8.19a2.18,2.18,0,0,1,3.8,2.13l-4.61,8.2c-3.34,5.95-7.13,12.69-7.29,19.78A2.19,2.19,0,0,1,337.4,737.24Z"/><path class="cls-1" d="M390.44,770.29l-.85,0a20.16,20.16,0,0,1-3.53-.62A69.56,69.56,0,0,1,356,753.37c-5.11-4.74-8-9.52-8.51-14.2a13.72,13.72,0,0,1,.13-4c1.78-9.51,12.69-13.1,17.3-14.2a2.18,2.18,0,0,1,1,4.24c-3.78.9-12.72,3.76-14,10.75a8.74,8.74,0,0,0-.09,2.7c.51,4.52,4.16,8.75,7.13,11.5a65.06,65.06,0,0,0,28.17,15.24,16.11,16.11,0,0,0,2.77.51,4.89,4.89,0,0,0,2.5-.38,4,4,0,0,0,2-2.77,5.5,5.5,0,0,0,.11-2c0-.06,0-.11,0-.16a9.38,9.38,0,0,0-1.12-3.11,19.49,19.49,0,0,0-2.18-3.07,35.49,35.49,0,0,0-12.55-9.4,2.18,2.18,0,1,1,1.78-4,39.73,39.73,0,0,1,14.08,10.55,24.33,24.33,0,0,1,2.68,3.77,13.85,13.85,0,0,1,1.62,4.61,2.23,2.23,0,0,1,0,.33,9.8,9.8,0,0,1-.2,3.45,8.24,8.24,0,0,1-4.26,5.67A8.48,8.48,0,0,1,390.44,770.29Zm4.06-9.43h0Z"/><path class="cls-1" d="M372.9,820.74A41.17,41.17,0,0,1,357,817.41c-7.84-3.31-15.2-8.87-22.51-17-3.19-3.55-6.59-7.89-7.59-13.16-.91-4.69.23-9.37,1.23-13.5l.82-3.37c.92-3.8,1.85-7.6,2.76-11.4,1.41-5.76,3.17-11.72,6.48-16.27a18.31,18.31,0,0,1,7-5.89,2.18,2.18,0,0,1,1.85,3.95,13.71,13.71,0,0,0-5.31,4.51c-2.86,3.93-4.46,9.4-5.76,14.73-.91,3.8-1.84,7.6-2.76,11.4l-.82,3.37c-.94,3.88-1.91,7.88-1.18,11.65.8,4.23,3.76,8,6.55,11.06,6.87,7.64,13.72,12.83,21,15.89,8.55,3.61,17.69,4,25.08,1,3.46-1.4,6.7-4.43,5.89-7.27a2.18,2.18,0,1,1,4.19-1.19c1.52,5.34-3.1,10.33-8.44,12.49A33.2,33.2,0,0,1,372.9,820.74Z"/><path class="cls-1" d="M387.37,808.24a52.49,52.49,0,0,1-18.31-3.48c-7.5-2.82-14.91-7.21-23.32-13.81a2.18,2.18,0,0,1,2.69-3.42c8.05,6.32,15.09,10.5,22.16,13.16a46.13,46.13,0,0,0,20.84,3,36.69,36.69,0,0,0,4-.65c3-.67,4.83-1.74,5.53-3.18a2.17,2.17,0,1,1,3.92,1.88c-1.32,2.75-4.1,4.57-8.5,5.55a38.22,38.22,0,0,1-4.47.73A42.07,42.07,0,0,1,387.37,808.24Z"/><path class="cls-1" d="M408.65,802.77a2.28,2.28,0,0,1-.63-.09l-5.2-1.62c-20-6.28-40.66-13.75-54.9-29.88a2.18,2.18,0,1,1,3.26-2.89c13.5,15.3,33.56,22.52,52.94,28.61l5.15,1.61a2.18,2.18,0,0,1-.62,4.26Z"/><path class="cls-1" d="M416.67,801.12a2.18,2.18,0,0,1-.88-4.17c2.36-1,4.72-2.22,6-3.88a4.53,4.53,0,0,0,.85-1.68,5.48,5.48,0,0,0-.87-4.17,14.93,14.93,0,0,0-3.09-3.59,35.31,35.31,0,0,0-12.5-7,2.18,2.18,0,1,1,1.32-4.15,39.66,39.66,0,0,1,14,7.9,19.27,19.27,0,0,1,4,4.67,9.59,9.59,0,0,1,1.33,7.45,8.88,8.88,0,0,1-1.62,3.27c-1.88,2.43-4.81,3.94-7.69,5.2A2.22,2.22,0,0,1,416.67,801.12Z"/><path class="cls-1" d="M400.78,763.29a4.61,4.61,0,0,1-.52,0,10.16,10.16,0,0,1-2.95-.64c-.29-.11-.56-.23-.83-.35a2.17,2.17,0,0,1,1.8-4c.17.07.33.15.52.21a6.06,6.06,0,0,0,1.71.4,1.44,1.44,0,0,0,.73-.06l.1-.2,2.78-4.4c.08-.53.14-1.07.2-1.61a22.75,22.75,0,0,0-.72-9.13,14.89,14.89,0,0,0-2.68-5,12.16,12.16,0,0,0-1.67-1.69,11.17,11.17,0,0,0-2.05-1.33c-2-1-4.39-.93-5.53.08a1.88,1.88,0,0,0-.41.47,2.18,2.18,0,0,1-3.71-2.29,6.13,6.13,0,0,1,1.25-1.45c2.88-2.56,7.38-2.17,10.33-.72a15.65,15.65,0,0,1,2.87,1.87,15.93,15.93,0,0,1,2.28,2.29,19.19,19.19,0,0,1,3.47,6.47,27.09,27.09,0,0,1,.9,10.89c-.1.92-.19,1.63-.31,2.3a2,2,0,0,1-.3.8l-3,4.69A4.58,4.58,0,0,1,400.78,763.29Z"/><path class="cls-1" d="M402.61,739.85a2.18,2.18,0,0,1-2.18-2.18c0-.14,0-.27,0-.42,0-.38,0-.69-.06-1a2.17,2.17,0,1,1,4.32-.49c.05.44.08.87.09,1.31,0,.17,0,.38,0,.61A2.18,2.18,0,0,1,402.61,739.85Z"/><path class="cls-1" d="M402.52,738.16a2.17,2.17,0,0,1-2.16-1.93A15.62,15.62,0,0,0,387.17,723a11,11,0,0,0-1.22-.09,2.18,2.18,0,1,1,.11-4.35,14.56,14.56,0,0,1,1.65.12c8.52.92,16,8.41,17,17a2.17,2.17,0,0,1-1.92,2.41Z"/><path class="cls-1" d="M413.19,752.2a2.17,2.17,0,0,1-1.17-4,68.44,68.44,0,0,0,7.31-5.38,70.57,70.57,0,0,0,17.52-21.87c.34-.66.66-1.32,1-2a2.18,2.18,0,0,1,3.94,1.85q-.51,1.08-1,2.13a75,75,0,0,1-18.59,23.22,70.76,70.76,0,0,1-7.78,5.71A2.14,2.14,0,0,1,413.19,752.2Z"/><path class="cls-1" d="M415.14,647.46a2.24,2.24,0,0,1-1-.26,23.7,23.7,0,0,0-17.47-1.89A2.19,2.19,0,0,1,394,643.8a2.16,2.16,0,0,1,1.5-2.68,28.09,28.09,0,0,1,20.71,2.24,2.18,2.18,0,0,1-1,4.1Z"/><path class="cls-1" d="M444.46,739.4a2.18,2.18,0,0,1-2.13-1.74c-.12-.6-.24-1.21-.35-1.81-1.07-5.36-2-11.17-3-17.73-.6-4.16-1.15-8.41-1.69-12.51l-.26-2c-4.8-37.22-9.77-75.7-5.92-113.9.25-2.45.54-4.9.82-7.36A189.19,189.19,0,0,0,433.53,563c.09-9.1-1.19-18.34-2.43-27.28l2.14-.36,2.16-.3-2.16.3,2.17-.24c1.26,9.1,2.57,18.51,2.47,27.92a187.17,187.17,0,0,1-1.59,19.82c-.28,2.43-.56,4.87-.8,7.3-3.81,37.69,1.13,75.93,5.9,112.9l.26,2c.53,4.1,1.08,8.33,1.68,12.47.91,6.49,1.87,12.21,2.92,17.51.11.61.23,1.19.35,1.77a2.16,2.16,0,0,1-2.14,2.61Z"/><path class="cls-1" d="M458.44,563.3a2.17,2.17,0,0,1-2.17-2c-.55-8.14,2-16.94,7.31-25.46,4.67-7.45,10.79-13.78,16.72-19.9l.26-.27,5.86-6,.66-.69.3-.31a2.18,2.18,0,1,1,3.13,3l-.32.32c-.21.22-.42.43-.62.65-2,2-3.93,4-5.88,6.06l-.27.27c-5.76,6-11.73,12.12-16.15,19.18-3,4.87-6.53,12.15-6.72,20.23,2.44-1,4.68-2.82,7-4.77l1.35-1.11a70.09,70.09,0,0,1,13.4-8.57l1.25-.6a8.48,8.48,0,0,1,4.56-1c2.73.29,4.35,2.34,5.65,4a8.17,8.17,0,0,0,2.42,2.4,2.18,2.18,0,1,1-1.86,3.94,11.61,11.61,0,0,1-4-3.64c-1.11-1.41-1.85-2.27-2.7-2.36a5.39,5.39,0,0,0-2.26.66l-1.17.56a65.22,65.22,0,0,0-12.56,8l-1.32,1.08c-3.26,2.72-7,5.79-11.65,6.36Z"/><path class="cls-1" d="M508.26,546.62a2.19,2.19,0,0,1-1.86-1,37.33,37.33,0,0,1-5.21-15,2.18,2.18,0,1,1,4.32-.52,33,33,0,0,0,4.6,13.27,2.18,2.18,0,0,1-1.85,3.32Z"/><path class="cls-1" d="M503.49,567.85a2.18,2.18,0,0,1-2.09-1.54c-.89-3-1.67-5.93-2.3-8.79-.14-.61-.28-1.24-.4-1.87a2.18,2.18,0,1,1,4.27-.84c.11.58.24,1.17.37,1.75.62,2.77,1.36,5.62,2.23,8.48a2.18,2.18,0,0,1-1.45,2.72A2.28,2.28,0,0,1,503.49,567.85Z"/><path class="cls-1" d="M504.16,552.37a2.17,2.17,0,0,1-1.57-3.68,27.6,27.6,0,0,1,5.66-4.41,78.9,78.9,0,0,1,7.38-3.76l.52-.24a296.72,296.72,0,0,0,89.19-64.16c4.83-5,11-12.6,9.36-20a.52.52,0,0,1,0-.11,2.18,2.18,0,0,1,4.19-1.17,3,3,0,0,1,.1.43c2.07,9.43-5,18.15-10.48,23.89A300.94,300.94,0,0,1,518,544.22l-.52.25a74.38,74.38,0,0,0-7,3.53,23.38,23.38,0,0,0-4.78,3.7A2.13,2.13,0,0,1,504.16,552.37Z"/><path class="cls-1" d="M628.7,473.65a2.17,2.17,0,0,1-2-1.21c-1.93-3.89-3.7-7.85-5.25-11.78-.37-1-.74-1.9-1.09-2.85l0-.12a13,13,0,0,0-1.85-3.77,2.85,2.85,0,0,0-2.18-1.17h-.18l-.07,0a2.18,2.18,0,1,1-.69-4.3c.22,0,.44-.06.65-.07a7,7,0,0,1,5.82,2.74,16.56,16.56,0,0,1,2.59,5l0,.12c.34.92.69,1.84,1.06,2.76,1.51,3.81,3.22,7.67,5.1,11.45a2.17,2.17,0,0,1-1.95,3.14Z"/><path class="cls-1" d="M503.66,572.94a13.78,13.78,0,0,1-8.81-2.91,2.17,2.17,0,1,1,2.76-3.36c2.28,1.88,5.86,2.42,9.56,1.46s6.94-3.08,10.14-5.13a2.18,2.18,0,1,1,2.35,3.67c-3.32,2.13-7.08,4.54-11.38,5.67A18.61,18.61,0,0,1,503.66,572.94Z"/><path class="cls-1" d="M561.68,581a2,2,0,0,1-.48-.06,2.17,2.17,0,0,1-1.49-1.21,51.8,51.8,0,0,0-25.11-25.1l-.71-.32c-5.71-2.49-10.74-3.15-14.92-1.95a2.18,2.18,0,1,1-1.21-4.18c5.19-1.49,11.22-.77,17.9,2.15l.74.34a56.27,56.27,0,0,1,25.84,24.39c2-2.68,3-6.17,4-9.82.59-2,1.19-4.06,2-6,2.3-5.8,6.15-10.68,9.87-15.41,3.28-4.18,6.39-8.13,8.51-12.64.14-.3.29-.62.42-.93a2.17,2.17,0,0,1,4,1.73c-.15.35-.31.7-.47,1-2.34,5-5.74,9.29-9,13.48-3.69,4.69-7.18,9.12-9.24,14.33-.71,1.77-1.26,3.65-1.84,5.64-1.5,5.13-3.05,10.43-7.4,14A2.19,2.19,0,0,1,561.68,581Z"/><path class="cls-1" d="M431.34,533.59a2.17,2.17,0,0,1-2.09-1.58c-.16-.56-.3-1.14-.44-1.71-1.41-5.93-1.71-12.29-2-18.44-.28-5.86-.56-11.91-1.82-17.34-.33-1.41-.7-2.66-1.05-3.86a24,24,0,0,1-1.27-6.21,12,12,0,0,1,1.87-6.69c2.52-4.25,5.13-5.8,10-5.9h.78a2.18,2.18,0,1,1,0,4.35h-.63c-3.2.07-4.49.6-6.37,3.77a7.81,7.81,0,0,0-1.26,4.36,20.78,20.78,0,0,0,1.09,5.09c.36,1.21.76,2.57,1.12,4.11,1.35,5.81,1.64,12.06,1.93,18.11s.57,12.11,1.88,17.64c.13.51.25,1,.39,1.52a2.18,2.18,0,0,1-1.49,2.69A2.08,2.08,0,0,1,431.34,533.59Z"/><path class="cls-1" d="M595.75,522.45a2.17,2.17,0,0,1-1.83-3.35l1.2-1.86,17.73-27.45c3.13-4.85,6.37-9.85,10.71-14a32.31,32.31,0,0,1,5.49-4.21,23.4,23.4,0,0,1,11.08-3.53h.09a2.18,2.18,0,0,1,.09,4.35,19.11,19.11,0,0,0-9,2.91,27.63,27.63,0,0,0-4.74,3.63c-4,3.77-7.06,8.55-10.06,13.18l-17.72,27.46-1.2,1.85A2.19,2.19,0,0,1,595.75,522.45Z"/><path class="cls-1" d="M712.08,537.72a2.19,2.19,0,0,1-2-1.25c-3.88-8.34-9.58-14.31-16-16.81l-1.49-.63a2.18,2.18,0,0,1,1.71-4l1.42.61a30.16,30.16,0,0,1,11.83,8.71c-9.75-22.12-30.81-36.92-47.83-48.87-8.88-6.24-19.93-14-31.67-14.43a2.19,2.19,0,0,1-2.1-2.26,2.13,2.13,0,0,1,2.26-2.09c13,.48,24.66,8.65,34,15.21,18,12.66,40.42,28.41,50.22,52.88a2.54,2.54,0,0,1,.13.45l1.66,10a2.17,2.17,0,0,1-1.5,2.44A2.35,2.35,0,0,1,712.08,537.72Z"/><path class="cls-1" d="M620,555.88a2.28,2.28,0,0,1-.77-.14,2.19,2.19,0,0,1-1.27-2.81c.55-1.43,1.15-2.83,1.79-4.16,12.38-25.59,45.85-41.92,71.64-34.95l.27.1,2.62,1.1a2.18,2.18,0,0,1-1.69,4l-2.48-1c-23.9-6.38-54.92,8.86-66.44,32.68-.59,1.21-1.14,2.49-1.64,3.8A2.17,2.17,0,0,1,620,555.88Z"/><path class="cls-1" d="M612.36,678.73a2.17,2.17,0,0,1-2.14-1.78,299.39,299.39,0,0,1-1.44-100.38c.75-4.79,1.85-10.21,5.59-13.89a7.92,7.92,0,0,1,.71-.67,2.17,2.17,0,1,1,2.81,3.32c-.14.13-.28.25-.41.39-2.85,2.81-3.76,7.42-4.39,11.52a294.66,294.66,0,0,0,1.41,98.92,2.17,2.17,0,0,1-1.75,2.54Z"/><path class="cls-1" d="M610.59,748.13a2.18,2.18,0,0,1-2.17-2.1c-.64-19.4-1.37-41.38,5.11-61.46a81.49,81.49,0,0,1,4.15-10.43A2.17,2.17,0,0,1,621.6,676a78,78,0,0,0-3.93,9.89c-6.24,19.35-5.53,40.93-4.9,60a2.18,2.18,0,0,1-2.1,2.25Z"/><path class="cls-1" d="M441.41,433.35a15.25,15.25,0,0,1-1.86-.14,2.18,2.18,0,0,1,.53-4.32c.6.08,2,.25,2.45-.13s.33-1.63-.21-2.89a4.57,4.57,0,0,0-1-1.67.84.84,0,0,0-.51-.2A2.16,2.16,0,0,1,437.9,423a2.19,2.19,0,0,1,1.06-2.9,4.87,4.87,0,0,1,5.1.79,8.59,8.59,0,0,1,2.27,3.32c1.39,3.26,1,6.23-1,7.92A5.91,5.91,0,0,1,441.41,433.35Z"/><path class="cls-1" d="M750.67,789.14a2.17,2.17,0,0,1-2.17-2.08c0-.51,0-1.08-.07-1.71-.32-7-1.36-21.64-2.37-35.76-1.08-15.28-2.11-29.72-2.33-35.74-1-26.37-5.82-49.13-10.92-73.23-2.26-10.7-4.61-21.77-6.67-33.46-.42-2.37-.9-6.27-1.5-11.39l-.12-1c-1.52-12.74-3.8-32-7.28-42.5l0-.1c-.13-.4-.27-.79-.41-1.18a2.17,2.17,0,0,1,4.05-1.58c.17.44.33.89.49,1.36l0,.12c3.63,10.94,5.86,29.68,7.48,43.37l.12,1c.59,5,1.06,8.87,1.47,11.14,2.05,11.63,4.38,22.66,6.64,33.32,5.13,24.29,10,47.22,11,74,.22,5.95,1.29,21,2.33,35.59,1,14.15,2,28.79,2.37,35.9,0,.63,0,1.19.07,1.69a2.18,2.18,0,0,1-2.08,2.27Z"/><path class="cls-1" d="M718.81,552.33a2.17,2.17,0,0,1-2-1.42,20.47,20.47,0,0,0-1.75-3.77,2.18,2.18,0,0,1,3.69-2.31,25.54,25.54,0,0,1,2.15,4.57,2.19,2.19,0,0,1-1.29,2.8A2.25,2.25,0,0,1,718.81,552.33Z"/><path class="cls-1" d="M543.14,765.07a2.18,2.18,0,0,1-.42-4.32l1.5-.28,27.46-5.11,13.6-2.53c8.68-1.62,17.17-3.15,25.68-4.22,19-2.34,34-1.6,47.33,2.34a2.18,2.18,0,0,1-1.24,4.18c-12.68-3.77-27.16-4.47-45.56-2.19-8.39,1-16.8,2.56-25.41,4.16l-13.6,2.54L545,764.75l-1.49.28A3,3,0,0,1,543.14,765.07Z"/><path class="cls-1" d="M503.76,290.12a2.18,2.18,0,0,1-1.91-1.13,30.54,30.54,0,0,1-1.42-3A26.13,26.13,0,0,1,514.1,252.4a2.18,2.18,0,1,1,1.76,4,21.77,21.77,0,0,0-11.38,28,24.05,24.05,0,0,0,1.19,2.51,2.18,2.18,0,0,1-1.91,3.23Z"/><path class="cls-1" d="M634.54,328.36a2.18,2.18,0,0,1-2.18-2.17c0-.15,0-.24,0-.33-.43-11.5-9.64-28.48-34.18-41.4-15.24-8-23.57-11.24-44.65-11.06h-.23l-12.73-1.25-.16,0c-3.49-.62-7.45-1.31-10.84-3.54s-5.53-6-5.39-9.6a7.94,7.94,0,0,1,.25-1.74,2.18,2.18,0,1,1,4.22,1.08,4.09,4.09,0,0,0-.12.8A7.21,7.21,0,0,0,532,265c2.6,1.71,5.9,2.3,9.1,2.86l12.53,1.24c21.91-.18,31,3.39,46.59,11.55,17.18,9,35.79,25.66,36.51,45.18l-2.16.24,2.17-.1c0,.09,0,.18,0,.27A2.18,2.18,0,0,1,634.54,328.36Z"/><path class="cls-1" d="M518.28,309.16a2.15,2.15,0,0,1-1.72-.84,18.27,18.27,0,0,1-1.71-2.61c-.26-.48-.51-1-.74-1.51a22,22,0,0,1,4-23.8,2.17,2.17,0,0,1,3.11,3c-4.63,4.74-6,12.73-3.15,19,.18.42.37.81.57,1.18a15,15,0,0,0,1.33,2,2.18,2.18,0,0,1-.39,3.06A2.12,2.12,0,0,1,518.28,309.16Z"/><path class="cls-1" d="M425.35,748.09a2.2,2.2,0,0,1-2-1.23,2.18,2.18,0,0,1,1-2.91l.95-.46a36.19,36.19,0,0,1,20.42-2.9c.61.09,1.22.2,1.82.33a4.1,4.1,0,0,1,.48.1,2.19,2.19,0,0,1,1.64,2.62,2.17,2.17,0,0,1-2.6,1.63l-.24-.06-.12,0c-.53-.11-1.08-.21-1.63-.29a31.77,31.77,0,0,0-17.92,2.53l-.91.44A2.16,2.16,0,0,1,425.35,748.09Z"/><path class="cls-1" d="M426.73,780.35a2.59,2.59,0,0,1-.55-.07,2.18,2.18,0,0,1-1.56-2.66,49.34,49.34,0,0,1,2.31-6.82,51.3,51.3,0,0,1,22.68-25.15l.44-.24a2.18,2.18,0,1,1,1.95,3.9,1.65,1.65,0,0,0-.26.14,47,47,0,0,0-20.8,23,45.25,45.25,0,0,0-2.11,6.23A2.17,2.17,0,0,1,426.73,780.35Z"/><path class="cls-1" d="M536.24,761.81a2.07,2.07,0,0,1-.84-.17l-.12,0a112.7,112.7,0,0,0-58.45-7.75l-.27,0a18.18,18.18,0,0,1-5.15.2,16.69,16.69,0,0,1-3.15-.81l-.18,0a62.88,62.88,0,0,0-10.6-2.34c-.58-.08-1.15-.14-1.74-.2a2.18,2.18,0,0,1,.48-4.33c.61.06,1.21.13,1.82.21a68,68,0,0,1,11.36,2.51l.2.06a13.61,13.61,0,0,0,2.42.64,15,15,0,0,0,4-.2l.28,0a117.12,117.12,0,0,1,60.66,8l.17.07a2.17,2.17,0,0,1-.84,4.18Z"/><path class="cls-1" d="M667.24,839.09a2.18,2.18,0,1,1,0-4.36c1.88,0,3.56-.06,5.14-.18,6.8-.51,11.46-2.19,13.83-5a3,3,0,0,1,.25-.25l6.43-5.49c5-5.6,6.72-13.93,8.19-22.7.36-2.14.81-4.52,1.39-7.26,1.08-5.13,2.42-10.71,3.71-16.1,2.25-9.37,4.58-19.06,5.72-27.1,4-27.76,6.66-72,9.05-111.08,1-16.45,2-32,2.89-44.16a2.18,2.18,0,1,1,4.34.33c-.93,12.14-1.88,27.66-2.88,44.09-2.4,39.14-5.12,83.5-9.09,111.43-1.17,8.25-3.52,18-5.8,27.51-1.28,5.36-2.61,10.9-3.68,16-.56,2.69-1,5-1.35,7.09-1.59,9.48-3.51,18.53-9.35,25l-.2.2-6.42,5.48c-3.22,3.67-8.68,5.75-16.7,6.36C671,839,669.23,839.09,667.24,839.09Z"/><path class="cls-1" d="M489.56,819.69l-.34,0-.36-.06-1.8-.29c-10.84-1.68-21.88-3.47-33.72-5.44-7.95-1.31-17.85-3-25.87-8.11a2.18,2.18,0,0,1,2.36-3.66c7.26,4.67,16.27,6.16,24.22,7.48,11.83,2,22.85,3.75,33.71,5.44l1.77.28.36.05a2.18,2.18,0,0,1-.33,4.33Z"/><path class="cls-1" d="M331.48,715.49l-.35,0c-11.78-1.91-72-11.44-130.16-20.65S82.59,676.07,70.8,674.16a2.18,2.18,0,1,1,.7-4.3c11.78,1.92,72,11.44,130.16,20.65S320,709.25,331.83,711.16a2.18,2.18,0,0,1-.35,4.33Z"/><path class="cls-1" d="M847.28,822.3l-.39,0c-19-3.45-38.78-7.09-57.3-10.5-14.2-2.61-27.63-5.08-39.32-7.21-14.8-2.71-30.86-5.62-37.77-6.75a2.18,2.18,0,1,1,.7-4.3c6.95,1.14,23,4.06,37.85,6.77,11.7,2.13,25.13,4.6,39.33,7.21,18.52,3.4,38.33,7,57.29,10.5a2.17,2.17,0,0,1-.39,4.31Z"/><path class="cls-1" d="M521.49,886.65c-20.44,0-40.16-6.69-59.24-13.15-7.83-2.66-15.93-5.4-23.94-7.63-6.33-1.75-12.81-3.24-19.26-4.42-6.61-1.2-14.43-2.35-22.27-1.71a40,40,0,0,0-17.65,5.43,30.71,30.71,0,0,0-2.53,1.76,2.18,2.18,0,0,1-2.67-3.44,33.42,33.42,0,0,1,2.91-2,44.09,44.09,0,0,1,19.58-6.07c8.34-.68,16.52.51,23.41,1.77,6.58,1.2,13.19,2.72,19.64,4.5,8.13,2.26,16.29,5,24.18,7.7,19.11,6.48,38.9,13.17,59,12.91h.18a2.18,2.18,0,0,1,0,4.36h-1.38Z"/><path class="cls-1" d="M534.94,910.1a2.17,2.17,0,0,1-1.66-.77,54,54,0,0,1-10.11-18.22,2.18,2.18,0,1,1,4.15-1.33,49.46,49.46,0,0,0,9.28,16.74,2.17,2.17,0,0,1-.25,3.07A2.15,2.15,0,0,1,534.94,910.1Z"/><path class="cls-1" d="M529.25,886.43a2.18,2.18,0,0,1-.57-4.28l2.67-.73.22-.07a702.19,702.19,0,0,0,123.52-47.13,2.18,2.18,0,1,1,1.93,3.9,706.77,706.77,0,0,1-124.08,47.37l-.21.07-2.91.8A2.22,2.22,0,0,1,529.25,886.43Z"/><path class="cls-1" d="M674.53,853.62a2.18,2.18,0,0,1-1.83-1l-.08-.11a28.21,28.21,0,0,0-7.13-7.17,66.86,66.86,0,0,1-5.74-4.84,2.18,2.18,0,0,1,3-3.15,61.23,61.23,0,0,0,5.4,4.54,32.28,32.28,0,0,1,8.1,8.22l.1.15a2.17,2.17,0,0,1-.64,3A2.25,2.25,0,0,1,674.53,853.62Z"/><path class="cls-1" d="M539.72,911.59a2.2,2.2,0,0,1-2.06-1.43,2.15,2.15,0,0,1,1.25-2.77l.17-.06q19.11-6.6,38.29-13.2c32.41-11.19,65.94-22.76,96.75-39a2.18,2.18,0,1,1,2,3.85C645,875.38,611.36,887,578.79,898.24l-38.32,13.21A2.17,2.17,0,0,1,539.72,911.59Z"/><path class="cls-1" d="M540.08,918.52a2.18,2.18,0,0,1-.62-4.27c1.46-.43,2.92-.87,4.38-1.33a1312.57,1312.57,0,0,0,141.1-51.66,11.8,11.8,0,0,0-3.09-.9,10.55,10.55,0,0,0-1.38-.1,2.18,2.18,0,0,1,.09-4.36,15.2,15.2,0,0,1,1.9.15,16,16,0,0,1,8.49,4,2.19,2.19,0,0,1,.67,2,2.22,2.22,0,0,1-1.28,1.64,1317.83,1317.83,0,0,1-145.22,53.42l-4.42,1.34A2.27,2.27,0,0,1,540.08,918.52Z"/><path class="cls-1" d="M377.93,865.41a2.17,2.17,0,0,1-1.47-3.77c3.72-3.44,8.36-5.37,13.19-7.21,5.78-2.19,11.77-4.29,17.8-6.25,8-2.58,16.23-4.94,24.18-7.21l.24-.07,39.66-11.34,45.35-13,8.4-2.41a2.18,2.18,0,1,1,1.19,4.19l-8.39,2.4-45.35,13-39.66,11.35-.25.07c-7.91,2.26-16.09,4.6-24,7.16-6,1.94-11.88,4-17.59,6.18-4.42,1.68-8.64,3.43-11.79,6.34A2.2,2.2,0,0,1,377.93,865.41Z"/><path class="cls-1" d="M649.05,835.48a1.67,1.67,0,0,1-.31,0l-.22,0c-14.36-2.16-28.68-5.56-42.53-8.86-19-4.51-38.58-9.18-58.25-10.6a55,55,0,0,0-11.68.14,2.18,2.18,0,1,1-.63-4.31,59.36,59.36,0,0,1,12.62-.17c20,1.44,39.81,6.15,59,10.71,13.76,3.27,28,6.66,42.14,8.78l.21,0a2.18,2.18,0,0,1-.3,4.33Z"/><path class="cls-1" d="M532.33,816.84a2.18,2.18,0,0,1-.56-4.28c.88-.23,1.67-.41,2.43-.54.37-.08.79-.15,1.23-.21a2.18,2.18,0,1,1,.59,4.31c-.35,0-.68.11-1,.18-.68.12-1.36.27-2.11.47A2.2,2.2,0,0,1,532.33,816.84Z"/><path class="cls-1" d="M334.22,877.36h-.28a207.57,207.57,0,0,1-21.79-1.86c-12.65-1.54-24.59-2.91-36.15-4.25s-23.61-2.72-36.33-4.26l-.26,0a2.18,2.18,0,0,1,.47-4.33l.29,0c12.73,1.55,24.73,2.93,36.33,4.27s23.51,2.71,36.17,4.25A204.46,204.46,0,0,0,334,873a26.49,26.49,0,0,0,8.43-1.71l1.82-.58a64.81,64.81,0,0,0,9.11-3.87,44,44,0,0,1,8.74-2.93c1.52-.4,3.09-.8,4.6-1.29,1.27-.41,5.11-1.66,7.53.93a2.18,2.18,0,0,1-3.18,3c-.08-.09-.65-.53-3,.24-1.64.53-3.27,1-4.86,1.36a40.24,40.24,0,0,0-7.9,2.62,68.16,68.16,0,0,1-9.76,4.13l-1.77.56A30.11,30.11,0,0,1,334.22,877.36Z"/><path class="cls-1" d="M489.55,822.51a2.18,2.18,0,0,1-.37-4.32l.29-.05,3.22-.56a127.66,127.66,0,0,1,24.56-2.12,2.18,2.18,0,1,1-.14,4.35,124.4,124.4,0,0,0-23.7,2.06l-3.18.56-.29.05Z"/><path class="cls-1" d="M240.6,862.66a2.25,2.25,0,0,1-.44,0,2.19,2.19,0,0,1-1.69-2.58c.71-3.44,4.53-4.51,6-4.92,17.72-5,35.34-8.14,52.37-11.2s34.44-6.21,52-11.12a66.64,66.64,0,0,1,12.69-2.67,67,67,0,0,1,12.39.54l.75.08c16.77,1.73,35,.65,50.73-.62,14.44-1.17,26-3.78,39.44-6.8l6.26-1.4c5.43-1.2,11.76-2.59,18.14-3.74a2.18,2.18,0,0,1,.77,4.29c-6.3,1.13-12.58,2.5-18,3.7l-6.24,1.4c-13.58,3.06-25.31,5.7-40.05,6.89-15.87,1.29-34.41,2.38-51.53.61l-.76-.08a62.4,62.4,0,0,0-11.58-.53A63.75,63.75,0,0,0,350,837c-17.72,5-35.33,8.14-52.37,11.21s-34.44,6.2-52,11.11c-2.24.63-2.81,1.23-2.89,1.61A2.18,2.18,0,0,1,240.6,862.66Z"/><path class="cls-1" d="M533.08,920.33h-.15l-.48,0c-26.11-1.94-52-8.14-77-14.13-22.57-5.41-45.91-11-69.26-13.42l-.75-.07c-6-.61-12.14-1.25-17.28-4.78-4.81-3.29-8.36-10.52-5.71-16.46a9.78,9.78,0,0,1,1.21-2,2.18,2.18,0,1,1,3.45,2.65,5.57,5.57,0,0,0-.67,1.14c-1.54,3.44.38,8.52,4.18,11.12,4.23,2.91,9.84,3.48,15.26,4l.76.07c23.64,2.44,47.12,8.07,69.83,13.51,24.83,6,50.51,12.11,76.28,14l.45,0a2.17,2.17,0,0,1-.15,4.34Z"/><path class="cls-1" d="M529.7,911.84a2.85,2.85,0,0,1-.41,0l-.12,0-62.92-10.62c-8.39-1.41-17.07-2.87-25.69-5.1-2.22-.58-4.46-1.21-6.62-1.82-4.39-1.24-8.93-2.52-13.44-3.34s-9.21-1.21-13.77-1.6c-8.6-.73-17.49-1.48-25.67-5-6.35-2.74-12.29-8.75-10.32-15.49a2.18,2.18,0,0,1,4.18,1.22c-1.31,4.48,4,8.6,7.87,10.28,7.52,3.25,15.67,3.94,24.3,4.67,4.67.4,9.49.81,14.19,1.66s9.35,2.16,13.84,3.43c2.14.61,4.35,1.23,6.53,1.79,8.44,2.19,17,3.63,25.32,5l63,10.62h0l.31.06a2.18,2.18,0,0,1-.56,4.29Z"/><path class="cls-1" d="M329.63,884.38c-9.1,0-21.14-1.91-31.88-3.62-5-.79-9.7-1.54-13.55-2-4.58-.55-9.34-1.09-14.19-1.64-16.14-1.84-32.83-3.75-47.8-6.46a2.18,2.18,0,0,1-1.78-2.34c.17-1.85,1.94-5.31,7.55-6.55a2.18,2.18,0,1,1,.94,4.25,8.59,8.59,0,0,0-2.55,1c13.95,2.38,29.28,4.13,44.13,5.82,4.86.56,9.63,1.1,14.22,1.65,3.93.47,8.68,1.22,13.71,2,11.7,1.86,25,4,33.85,3.5,12.49-.66,20-3.61,31.16-9.57h0l.13-.07a2.15,2.15,0,0,1,3,.77,2.21,2.21,0,0,1-.79,3l-.21.12c-11.77,6.28-19.7,9.38-33,10.09C331.59,884.35,330.63,884.38,329.63,884.38Z"/><path class="cls-1" d="M742.37,944.79a2.18,2.18,0,0,1-2-1.33A39.1,39.1,0,0,1,737.93,924a67.8,67.8,0,0,1,5.24-18.53,2.18,2.18,0,1,1,4,1.69,63.89,63.89,0,0,0-4.93,17.34,34.79,34.79,0,0,0,2.12,17.28,2.17,2.17,0,0,1-1.16,2.85A2.1,2.1,0,0,1,742.37,944.79Z"/><path class="cls-1" d="M846,1021c-2,0-3.62-1.7-4.2-4.33a78.22,78.22,0,0,1,.48-36.29,3.5,3.5,0,0,1,3.1-2.74,2.58,2.58,0,0,1,2,1,2.18,2.18,0,0,1-1,3.45,73.7,73.7,0,0,0-.3,33.65,3.07,3.07,0,0,0,.33.88,2.18,2.18,0,0,1,.54,4.28A3.52,3.52,0,0,1,846,1021Zm-.21-4.32Z"/><path class="cls-1" d="M1088.35,950.66a2.18,2.18,0,0,1-.26-4.34l.91-.11,35.11-4.4.53-.09.43-.07h.06a2.17,2.17,0,0,1,3.75-1.89c1.16,1.29,1.53,2.55,1.11,3.74-.66,1.88-2.72,2.21-4.22,2.46l-.44.07-.11,0-.28.05-.19,0-36.14,4.52Z"/><path class="cls-1" d="M849.65,981.31a2.18,2.18,0,0,1-.28-4.34l165.18-21.45a2.18,2.18,0,0,1,.56,4.32l-3.49.45-161.69,21Z"/><path class="cls-1" d="M847.82,1022.08a2.18,2.18,0,0,1-.26-4.34l277-33.54a2.18,2.18,0,0,1,.48,4.33l-.2,0-276.72,33.51Z"/><path class="cls-1" d="M844.51,1030.25c-4.79,0-10.44-4.69-16.81-10.36-1.42-1.27-2.65-2.36-3.53-3-7.86-6-14.95-12.94-21.81-19.68-5.8-5.7-11.79-11.6-18.17-16.79C770.44,969.22,756.76,958,744,947.63l-.14-.12a2.17,2.17,0,1,1,2.72-3.39l.16.12c12.75,10.43,26.43,21.6,40.18,32.79,6.53,5.31,12.6,11.28,18.47,17.05,6.76,6.65,13.75,13.53,21.39,19.32,1,.76,2.3,1.91,3.8,3.24,3.88,3.46,10.39,9.26,13.91,9.26a2,2,0,0,0,.38,0,2.17,2.17,0,1,1,.88,4.26A6.34,6.34,0,0,1,844.51,1030.25Z"/><path class="cls-1" d="M841.4,979.59a2.13,2.13,0,0,1-1.33-.46l-92.82-71.72a2.18,2.18,0,0,1,2.66-3.45l92.82,71.73a2.18,2.18,0,0,1-1.33,3.9Z"/><path class="cls-1" d="M749.56,904.78a2.17,2.17,0,0,1-1.41-3.83c1.7-1.44,5.28-2.3,10.65-2.54,1.73-.08,12.65-1.09,54.86-5.48a2.18,2.18,0,1,1,.45,4.33c-34,3.53-52.52,5.38-55.12,5.5-6.52.29-8,1.46-8,1.5A2.16,2.16,0,0,1,749.56,904.78Z"/><path class="cls-1" d="M749.22,905.19a2.09,2.09,0,0,1-.69-.12,2.18,2.18,0,0,1-1.37-2.76,3.1,3.1,0,0,1,1-1.36,2.18,2.18,0,0,1,2.9,3.25A2.22,2.22,0,0,1,749.22,905.19Zm2.06-1.48Zm0,0Zm0,0Zm0,0Z"/><path class="cls-1" d="M1124.41,941.16a2.21,2.21,0,0,1-.93-.21l-35.15-16.59a2.18,2.18,0,0,1,1.87-3.94l1.86.89,33.28,15.7a2.18,2.18,0,0,1-.93,4.15Z"/><path class="cls-1" d="M1124.8,983.9h-.09a2.16,2.16,0,0,1-2.08-2.26c.37-9.28.36-18.7,0-28,0-.08,0-.16,0-.24q0-1.15-.09-2.31a2.17,2.17,0,0,1,4.34-.24c0,.73.08,1.47.1,2.2a1.28,1.28,0,0,1,0,.19c.41,9.48.42,19.09,0,28.57A2.19,2.19,0,0,1,1124.8,983.9Z"/><path class="cls-1" d="M837.25,966.75a2.17,2.17,0,0,1-2-1.37l-.32-.82-.42-1a357.38,357.38,0,0,1-12.63-36.9c-1.34-4.87-2.61-9.81-3.84-14.6l-.11-.4A92.7,92.7,0,0,1,814.8,895a32.5,32.5,0,0,1,1.83-14.09c.13-.36.3-.76.46-1.15a2.18,2.18,0,0,1,4,1.7c-.14.32-.27.64-.39,1a28.34,28.34,0,0,0-1.56,12.28,87.64,87.64,0,0,0,3,15.81l.1.4c1.23,4.76,2.5,9.69,3.83,14.52a351.18,351.18,0,0,0,12.48,36.45q.21.52.42,1.08l.31.79a2.17,2.17,0,0,1-1.22,2.83A2.22,2.22,0,0,1,837.25,966.75Z"/><path class="cls-1" d="M839.63,964.56h-.06a2.17,2.17,0,0,1-2.12-2.23l0-.76c0-.56,0-1.12,0-1.68a2.18,2.18,0,0,1,4.35.18c0,.54,0,1.06,0,1.59l0,.79A2.18,2.18,0,0,1,839.63,964.56Z"/><path class="cls-1" d="M839.69,962.14h-.07a2.19,2.19,0,0,1-2.11-2.25c.19-5.63.57-11.44,1-17.06.34-5.08.69-10.34.88-15.42.07-1.39.1-2.76.13-4.11a2.18,2.18,0,0,1,2.18-2.13h.05a2.18,2.18,0,0,1,2.12,2.23c0,1.39-.06,2.79-.13,4.2-.19,5.12-.55,10.41-.89,15.52-.37,5.58-.75,11.36-.93,16.91A2.18,2.18,0,0,1,839.69,962.14Z"/><path class="cls-1" d="M842.78,917.59a2.16,2.16,0,0,1-2-1.42l-.11-.28c-.09-.25-.19-.51-.28-.78-1.64-4.38-3.63-9.56-5.62-14.76-2.15-5.61-4.38-11.41-6.15-16.15a2.18,2.18,0,0,1,4.08-1.52c1.76,4.72,4,10.51,6.13,16.11,2,5.21,4,10.41,5.66,14.85l.26.73.11.29a2.17,2.17,0,0,1-2,2.93Z"/><path class="cls-1" d="M951.63,920a2.18,2.18,0,0,1-.11-4.35l1.32-.06,2.56-.13c10-.49,19.25-1,28.4-1.66,33.24-2.24,66.51-5.67,98.68-9a2.18,2.18,0,1,1,.45,4.33c-32.21,3.32-65.52,6.74-98.84,9-9.17.62-18.48,1.16-28.46,1.65l-2.58.14-1.31.06Z"/><path class="cls-1" d="M844.27,923a2.18,2.18,0,0,1,0-4.35c8-.15,15.57-.26,23-.37,15.8-.23,30.72-.45,47.7-1a2.18,2.18,0,0,1,.15,4.35c-17,.56-32,.78-47.79,1-7.4.11-15,.22-23,.37Z"/><path class="cls-1" d="M847.9,969.94c-1.57,0-3.12,0-4.66,0a2.18,2.18,0,0,1,0-4.35h0c16.91.3,35.92-1.12,54.32-2.48,6.5-.48,12.63-.94,18.58-1.31,7.94-.49,16-1.11,23.53-1.69l80.06-6.14,58.29-4.47,4.13-.32a2.18,2.18,0,0,1,.34,4.34l-4.14.32-58.28,4.47-80.07,6.14c-7.56.58-15.62,1.2-23.59,1.7-5.92.37-12,.82-18.53,1.3C881.13,968.65,863.77,969.94,847.9,969.94Z"/><path class="cls-1" d="M843.27,969.9l-1.29,0a2.18,2.18,0,1,1,.11-4.36h0l1.18,0a2.18,2.18,0,1,1,0,4.35Z"/><path class="cls-1" d="M1086.26,947.47a2.18,2.18,0,0,1-2.17-2c-.06-.75-.13-1.51-.18-2.26-.59-7.25-1-14.71-1.32-22.15q-.16-4.67-.27-9.31a2.18,2.18,0,0,1,2.13-2.22h0a2.18,2.18,0,0,1,2.18,2.13q.09,4.62.26,9.24c.28,7.37.72,14.77,1.31,22,0,.75.12,1.49.18,2.22a2.17,2.17,0,0,1-2,2.36Z"/><path class="cls-1" d="M1084.59,905.43a2.16,2.16,0,0,1-1.74-.86c-2.47-3.28-4.83-6.65-7-10-.88-1.32-1.8-2.76-2.79-4.37a2.18,2.18,0,0,1,3.72-2.27c1,1.57,1.84,3,2.71,4.26,2.14,3.32,4.44,6.61,6.84,9.8a2.17,2.17,0,0,1-.42,3A2.23,2.23,0,0,1,1084.59,905.43Z"/><path class="cls-1" d="M802.88,865.21a2.19,2.19,0,0,1-2-1.45,45.28,45.28,0,0,1-2.51-17.8c0-.4.06-.82.1-1.23a2.17,2.17,0,1,1,4.33.36c0,.37-.06.75-.08,1.13a40.69,40.69,0,0,0,2.26,16.08,2.18,2.18,0,0,1-1.32,2.78A2.08,2.08,0,0,1,802.88,865.21Z"/><path class="cls-1" d="M921.71,922.37a2.18,2.18,0,0,1-2.16-1.93l-.07-.62c-.48-4.22-2.79-25.73-1.1-33a2.18,2.18,0,0,1,4.24,1c-1.26,5.41.15,22.34,1.19,31.49l.06.59a2.16,2.16,0,0,1-1.91,2.41Z"/><path class="cls-1" d="M918.54,921.61a2.07,2.07,0,0,1-.9-.2L804.21,869.8a2.17,2.17,0,1,1,1.79-4l25.19,11.46,88.26,40.15a2.18,2.18,0,0,1-.91,4.16Z"/><path class="cls-1" d="M920.67,888.5a2.06,2.06,0,0,1-.77-.14l-114.59-43a2.18,2.18,0,0,1,1.54-4.08l.32.12,114.26,42.88a2.18,2.18,0,0,1-.76,4.22Z"/><path class="cls-1" d="M1057.22,853.39a2.22,2.22,0,0,1-.51-.06l-126.5-31.87a2.18,2.18,0,0,1,1.06-4.22l126.44,31.85a2.2,2.2,0,0,1,1.61,2.64A2.17,2.17,0,0,1,1057.22,853.39Z"/><path class="cls-1" d="M926.06,923.51a2.18,2.18,0,0,1-.36-4.32l2.68-.48c6.19-1.12,13.17-2.52,19.19-3.75,3.69-.75,7.36-1.51,10.86-2.24,5-1,9.69-2,13.58-2.77,4.92-1,9.92-1.83,14.77-2.66,4.35-.75,8.86-1.52,13.26-2.37,23.35-4.51,46.51-11.62,66.94-17.89l1.89-.58a2.18,2.18,0,0,1,1.29,4.16l-1.93.59c-20.51,6.29-43.78,13.44-67.36,18-4.45.86-9,1.64-13.36,2.39-4.81.82-9.79,1.68-14.66,2.64C969,915,964.32,916,959.31,917l-10.87,2.23c-6,1.24-13.06,2.65-19.27,3.77-.92.17-1.84.34-2.74.49A2.31,2.31,0,0,1,926.06,923.51Z"/><path class="cls-1" d="M920.8,888.5a2.18,2.18,0,0,1-.47-4.3c47.06-10.49,98.9-21.86,144.65-31.88a2.18,2.18,0,0,1,.93,4.25c-45.74,10-97.58,21.39-144.63,31.88A2.61,2.61,0,0,1,920.8,888.5Z"/><path class="cls-1" d="M1068.77,884.39a2.18,2.18,0,0,1-2.17-2.16v-.17q-.08-10.45-.17-20.95c0-.54,0-1.06,0-1.58v-1.82a2.18,2.18,0,1,1,4.35,0v1.77c0,.51,0,1.07,0,1.61q.11,10.45.18,20.94v.16a2.19,2.19,0,0,1-2.16,2.2Z"/><path class="cls-1" d="M809.14,842.57a2.18,2.18,0,0,1-.53-4.29c37.32-9.4,83.84-16.74,114.93-20.47l1.42-.17a2.18,2.18,0,1,1,.51,4.32l-1.38.17c-31,3.72-77.29,11-114.42,20.37A2,2,0,0,1,809.14,842.57Z"/><path class="cls-1" d="M850.15,1030.71a2.18,2.18,0,0,1-.26-4.34c7.22-.86,14.56-1.92,21.66-2.94s14.48-2.1,21.76-3c16.07-1.9,32.75-3.8,48.89-5.64s32.67-3.72,48.66-5.61c16.27-1.93,32.06-4.1,47.33-6.19s30.83-4.22,47-6.14l7-.92c6.3-.84,12.81-1.7,18.78-2.3,1.94-.2,3.82-.58,5.8-1s4.19-.84,6.42-1.06,5.44-1.6,6-2.44h0a2.18,2.18,0,0,1,3.26-2.87,1.78,1.78,0,0,1,.22.26l0,0a4.07,4.07,0,0,1,.54,4.23c-1.46,3.29-7.12,4.88-9.64,5.13a57.76,57.76,0,0,0-6,1c-2,.4-4.06.82-6.22,1-5.9.6-12.38,1.45-18.65,2.28-2.4.32-4.76.64-7,.93-16.15,1.91-31.8,4.06-46.94,6.13s-31.09,4.27-47.41,6.2c-16,1.9-32.61,3.79-48.68,5.61s-32.81,3.74-48.87,5.64c-7.22.86-14.56,1.92-21.65,3s-14.49,2.09-21.76,3Z"/><path class="cls-1" d="M35.38,775.76a2.17,2.17,0,0,1-2.18-2.17V613a2.18,2.18,0,1,1,4.35,0V773.59A2.17,2.17,0,0,1,35.38,775.76Z"/><path class="cls-1" d="M46.35,776.77a2.18,2.18,0,0,1-2.18-2.18V616.52a2.18,2.18,0,0,1,4.35,0V774.59A2.18,2.18,0,0,1,46.35,776.77Z"/><path class="cls-1" d="M82.13,514.16a2.18,2.18,0,0,1-1.52-3.73c.66-.65,1.34-1.27,2-1.9a2.18,2.18,0,1,1,2.94,3.21c-.64.59-1.29,1.18-1.91,1.8A2.22,2.22,0,0,1,82.13,514.16Z"/><path class="cls-1" d="M35.8,605.93h-.2a2.18,2.18,0,0,1-2-2.37c1.12-11.93,2.37-22.64,6.31-32.75,2.78-7.16,6.86-13.75,10.8-20.12l.06-.08c8.65-14,17.6-28.43,29.81-40.17a2.17,2.17,0,1,1,3,3.13C71.81,524.93,63,539.14,54.5,552.89c-3.89,6.29-7.86,12.7-10.5,19.49-3.74,9.59-5,20-6,31.58A2.18,2.18,0,0,1,35.8,605.93Z"/><path class="cls-1" d="M35.68,607.23h-.23a2.19,2.19,0,0,1-1.94-2.4l.12-1.25A2.18,2.18,0,0,1,38,604l-.12,1.25A2.17,2.17,0,0,1,35.68,607.23Z"/><path class="cls-1" d="M46.3,610.32a2.18,2.18,0,0,1-2.17-2c-1-15.64,3.23-32.64,12.22-49.14,8.39-15.42,20.07-29,30.39-40.32A2.18,2.18,0,1,1,90,521.76c-10.14,11.09-21.61,24.45-29.77,39.46-8.6,15.78-12.64,32-11.71,46.79a2.17,2.17,0,0,1-2,2.31Z"/><path class="cls-1" d="M91.06,523.54a2.16,2.16,0,0,1-2-1.27l-.16-.35c-.25-.59-.49-1.13-.74-1.67l-.23-.52c-1.47-3.26-3-6.58-4.68-9.86-1.23-2.46-2.52-4.94-4-7.6l-.15-.27A2.18,2.18,0,1,1,83,499.9l.16.29c1.47,2.72,2.78,5.24,4,7.73,1.67,3.34,3.27,6.71,4.76,10l.23.51c.25.57.51,1.13.75,1.69l.14.31A2.17,2.17,0,0,1,92,523.34,2.07,2.07,0,0,1,91.06,523.54Z"/><path class="cls-1" d="M82.68,498.59a2.1,2.1,0,0,1-.65-.1,2.18,2.18,0,0,1-1.43-2.73,32.84,32.84,0,0,1,3-6.87A35.27,35.27,0,0,1,97,475.82a37.63,37.63,0,0,1,13.3-4.37,41.54,41.54,0,0,1,10.51-.07c.56.07,1.11.15,1.66.24a2.18,2.18,0,0,1-.72,4.3c-.49-.08-1-.16-1.48-.22a36.36,36.36,0,0,0-9.38.07,33.17,33.17,0,0,0-11.77,3.85A31,31,0,0,0,87.4,491.08a28.7,28.7,0,0,0-2.65,6A2.16,2.16,0,0,1,82.68,498.59Z"/><path class="cls-1" d="M135.69,494.64a2.17,2.17,0,0,1-1.92-1.17,59.81,59.81,0,0,0-8.54-12.19c-.48-.53-1-1-1.47-1.56a2.18,2.18,0,0,1,3.14-3c.53.55,1.06,1.11,1.56,1.67a63.76,63.76,0,0,1,9.16,13.07,2.18,2.18,0,0,1-.91,2.94A2.09,2.09,0,0,1,135.69,494.64Z"/><path class="cls-1" d="M84.55,491.43a2.19,2.19,0,0,1-2-1.25q-.15-.3-.27-.6c-.82-1.74-1.6-3.57-2.33-5.46a21.92,21.92,0,0,1-1.68-6.75c-.24-5.56,3.17-11.24,9.13-15.21,4.8-3.18,9.63-4.1,13.61-2.59,3.26,1.25,5.34,3.8,7.35,6.27a32.06,32.06,0,0,0,2.72,3.08c.19.2.37.35.54.5a2.17,2.17,0,0,1-2.81,3.32c-.26-.22-.52-.46-.77-.7a39.73,39.73,0,0,1-3.06-3.45c-1.72-2.12-3.35-4.12-5.53-4.95-3.54-1.35-7.56.77-9.64,2.15-4.67,3.11-7.36,7.37-7.19,11.38a18.07,18.07,0,0,0,1.4,5.39c.69,1.8,1.44,3.55,2.22,5.2,0,0,0,.07,0,.11s.14.3.21.45a2.18,2.18,0,0,1-2,3.11Z"/><path class="cls-1" d="M96.8,522.87a2.24,2.24,0,0,1-.83-.17,2.17,2.17,0,0,1-1.18-2.84,36.48,36.48,0,0,1,2.5-5,40.5,40.5,0,0,1,25.61-18.54,2.18,2.18,0,1,1,.92,4.26A36.06,36.06,0,0,0,101,517.15a33.11,33.11,0,0,0-2.2,4.37A2.19,2.19,0,0,1,96.8,522.87Z"/><path class="cls-1" d="M111.52,609.65a2.19,2.19,0,0,1-2-1.3l-.6-1.38-.18-.42c-5.65-13.07-10.61-24.93-13.93-37.6-3.81-14.53-4.71-28-2.68-40.07.11-.68.25-1.36.38-2l0-.18a2.17,2.17,0,0,1,4.27.83l0,.18c-.12.65-.25,1.29-.35,1.94-1.93,11.45-1.06,24.32,2.59,38.24,3.24,12.38,8.13,24.08,13.72,37l.19.44c.19.44.37.88.57,1.31a2.18,2.18,0,0,1-1.11,2.88A2.15,2.15,0,0,1,111.52,609.65Z"/><path class="cls-1" d="M216.27,545a2.17,2.17,0,0,1-1.7-.8c-.45-.56-.91-1.12-1.39-1.67-6.59-7.67-14.53-14-23.49-21-8.41-6.54-16.06-12.29-24.52-16.5-8.76-4.36-17.24-6.44-25.19-6.15-.82,0-1.67.08-2.61.17a2.18,2.18,0,1,1-.42-4.33c1-.1,2-.16,2.87-.2,8.7-.29,17.87,1.92,27.29,6.61,8.82,4.39,16.65,10.28,25.25,17,9.14,7.1,17.27,13.62,24.12,21.6.5.57,1,1.17,1.47,1.76a2.19,2.19,0,0,1-.31,3.07A2.22,2.22,0,0,1,216.27,545Z"/><path class="cls-1" d="M135.79,626.31c-7.46,0-22.11-2.88-23.11-12.19a10,10,0,0,1,.17-3,2.18,2.18,0,0,1,4.26.9,5.63,5.63,0,0,0-.1,1.68c.62,5.75,12.65,8.39,19.24,8.28,23.83-.46,47.08-16.55,62.38-30,10.79-9.44,22.92-24.32,19.45-41.57-.11-.58-.24-1.15-.39-1.73a2.18,2.18,0,1,1,4.21-1.1c.17.66.32,1.33.45,2,2.14,10.64.26,27.22-20.85,45.69-15.85,13.9-40,30.57-65.17,31.06Z"/><path class="cls-1" d="M115.54,607.11h-.18a2.19,2.19,0,0,1-2-2.34c.87-10.72,7.55-21.93,19.85-33.34,2.84-2.63,6-5.28,9.41-7.86a117.32,117.32,0,0,1,25.78-14.69c2-.85,4.19-1.67,6.39-2.45l.48-.17c9.83-3.49,23.28-8.26,34.2-4.59.32.1.67.23,1,.36a2.18,2.18,0,1,1-1.6,4.05l-.78-.28c-9.52-3.19-22.16,1.29-31.39,4.56l-.48.17c-2.12.75-4.2,1.55-6.17,2.37A112.45,112.45,0,0,0,145.26,567c-3.29,2.49-6.35,5.05-9.09,7.59-7.89,7.31-17.5,18.54-18.47,30.49A2.17,2.17,0,0,1,115.54,607.11Z"/><path class="cls-1" d="M152.45,582a23,23,0,0,1-11.39-2.94,21.42,21.42,0,0,1-2-1.28,2.17,2.17,0,1,1,2.56-3.51,18.25,18.25,0,0,0,1.57,1,18.25,18.25,0,0,0,27.13-19.16,2.18,2.18,0,0,1,4.28-.81,23.09,23.09,0,0,1-10.13,23.32A22.69,22.69,0,0,1,152.45,582Z"/><path class="cls-1" d="M6.78,807.06A2.17,2.17,0,0,1,4.61,805l-.16-2a38.51,38.51,0,0,1,.24-9.81c0-.29.11-.61.19-.91a14.16,14.16,0,0,1,5-8.46,9.6,9.6,0,0,1,1.32-.79A2.17,2.17,0,1,1,13.14,787a5.21,5.21,0,0,0-.7.43,10.23,10.23,0,0,0-3.33,6c-.06.26-.11.46-.14.66a34,34,0,0,0-.18,8.7l.16,2a1.09,1.09,0,0,1,0,.18A2.18,2.18,0,0,1,6.78,807.06Z"/><path class="cls-1" d="M62.74,804.3a238.72,238.72,0,0,1-36.93-2.88c-4.26-.66-8.77-1.5-13-3.72a24.79,24.79,0,0,1-2.44-1.48,2.18,2.18,0,0,1,2.49-3.57,19.71,19.71,0,0,0,2,1.2c3.6,1.91,7.71,2.66,11.6,3.27a234.2,234.2,0,0,0,81.29-1.54,12.18,12.18,0,0,0,4.57-1.58,2.18,2.18,0,0,1,2.49,3.58,16.13,16.13,0,0,1-6.21,2.27A239.06,239.06,0,0,1,62.74,804.3Z"/><path class="cls-1" d="M109.91,785.4a2.59,2.59,0,0,1-.55-.07l-.5-.14-.63-.16c-20-5.21-42.19-7.24-60.81-5.56-3.8.33-7.43.81-10.8,1.42-2.93.51-5.88,1.15-8.77,1.91-1.61.42-3.18.88-4.8,1.4a2.18,2.18,0,0,1-1.34-4.14c1.71-.55,3.35-1,5-1.47,3-.79,6.07-1.46,9.11-2,3.49-.63,7.25-1.12,11.18-1.47,19.09-1.72,41.79.35,62.26,5.68l.7.18.45.12a2.18,2.18,0,0,1-.54,4.29Z"/><path class="cls-1" d="M119.28,807.39h-.15a2.18,2.18,0,0,1-2-2.33l0-.86v-.44a36.2,36.2,0,0,0-.39-9c0-.24-.1-.45-.16-.67a16,16,0,0,0-3.06-6.22,3.65,3.65,0,0,0-.24-.29,2.18,2.18,0,0,1,3.23-2.93c.15.17.29.34.43.53a19.89,19.89,0,0,1,3.84,7.8,8.13,8.13,0,0,1,.22.91,39.54,39.54,0,0,1,.48,10,1.69,1.69,0,0,1,0,.23v.11a.76.76,0,0,1,0,.15l0,1A2.17,2.17,0,0,1,119.28,807.39Zm0-3.12h0Z"/><path class="cls-1" d="M69.49,826.89A265.72,265.72,0,0,1,42,825.37a306.35,306.35,0,0,1-35.71-5.86,2.2,2.2,0,0,1-.7-.31C4,818.07.86,816,.15,812.23a12.17,12.17,0,0,1,.66-6c.15-.44.3-.87.45-1.27a2.18,2.18,0,1,1,4.08,1.52c-.13.36-.27.73-.39,1.1a8.18,8.18,0,0,0-.52,3.82c.32,1.71,1.76,2.9,3.29,4A308.85,308.85,0,0,0,42.54,821c18.32,1.94,44.61,3,65.79-3.17a3,3,0,0,1,.43-.08,20.27,20.27,0,0,0,10.34-4.64c1.51-1.33,2.07-2,2-3.95a15.2,15.2,0,0,0-.2-1.54,2.17,2.17,0,1,1,4.28-.77,15.19,15.19,0,0,1,.26,2.07c.19,3.92-1.52,5.76-3.44,7.46a24.52,24.52,0,0,1-12.62,5.69C96.88,825.69,82.77,826.89,69.49,826.89Z"/><path class="cls-1" d="M64.38,819a296.45,296.45,0,0,1-35.28-2.38c-5.58-.67-11-1.48-16-4a25.61,25.61,0,0,1-3.7-2.26,2.18,2.18,0,0,1,2.59-3.5A21.22,21.22,0,0,0,15,808.68c4.42,2.25,9.43,3,14.6,3.6,20.87,2.51,48.21,4.51,74.69-2.23A29.16,29.16,0,0,0,112,807.2c.37-.22.77-.47,1.16-.75a2.18,2.18,0,1,1,2.56,3.52c-.51.37-1,.68-1.49,1a33,33,0,0,1-8.9,3.33A166.6,166.6,0,0,1,64.38,819Z"/><path class="cls-1" d="M457.47,355.44h-.26a2.19,2.19,0,0,1-1.9-2.42,7.46,7.46,0,0,1,.13-.78,2.19,2.19,0,0,1,2.6-1.66,2.17,2.17,0,0,1,1.65,2.6l-.06.35A2.17,2.17,0,0,1,457.47,355.44Z"/><path class="cls-1" d="M402.52,738.17A2.18,2.18,0,1,1,404.7,736h0A2.18,2.18,0,0,1,402.52,738.17Z"/><path class="cls-1" d="M535.73,816.14a2.18,2.18,0,1,1,1.62-.71A2.21,2.21,0,0,1,535.73,816.14Z"/><path class="cls-1" d="M718.81,552.34a2.18,2.18,0,1,1,2.18-2.19h0A2.17,2.17,0,0,1,718.81,552.34Z"/><path class="cls-1" d="M749.55,904.78a2.17,2.17,0,0,1-1.54-3.7h0a2.17,2.17,0,1,1,1.53,3.71Z"/><path class="cls-1" d="M843.28,969.9a2.18,2.18,0,0,1,0-4.35h0a2.18,2.18,0,1,1,0,4.35Z"/><path class="cls-1" d="M839.69,962.15a2.18,2.18,0,1,1,2.18-2.19h0A2.18,2.18,0,0,1,839.69,962.15Z"/><path class="cls-1" d="M35.8,606a2.19,2.19,0,0,1,0-4.38A2.16,2.16,0,0,1,38,603.76v0A2.19,2.19,0,0,1,35.8,606Z"/><path class="cls-1" d="M82.12,514.17A2.18,2.18,0,1,1,84.31,512,2.18,2.18,0,0,1,82.12,514.17Z"/></g></g></svg>